<svg width="172" height="53" viewBox="0 0 172 53" fill="none" xmlns="http://www.w3.org/2000/svg">
<g clip-path="url(#clip0_2_455)">
<path d="M30.1132 16.1684V6.54269C30.1132 6.23833 29.9113 5.97054 29.6181 5.88664L20.0658 3.15843C19.9415 3.12345 19.8122 3.12396 19.6913 3.15843L10.3263 5.83319L0.961204 3.15843C0.756 3.10049 0.533397 3.1411 0.362862 3.26969C0.192263 3.39891 0.0916443 3.60071 0.0916443 3.81454V24.276C0.0916443 24.5804 0.293522 24.8482 0.586745 24.9321L10.139 27.6603C10.2003 27.6776 10.2637 27.6862 10.3263 27.6862C10.3897 27.6862 10.4527 27.6776 10.5135 27.6603L19.8786 24.9855L24.132 26.2002C25.3169 28.1343 26.5862 29.813 26.8423 30.1473C26.9716 30.3158 27.1715 30.4144 27.384 30.4144C27.5966 30.4144 27.7965 30.3158 27.9258 30.1473C28.4288 29.4906 32.8425 23.6532 32.8425 20.8657C32.8425 18.8553 31.7368 17.115 30.1132 16.1684ZM9.64395 26.0997L1.45624 23.7618V4.71906L9.64395 7.05698V26.0997ZM19.1963 23.7613L11.0086 26.0998V7.05742L19.1963 4.71893V23.7613ZM20.5609 23.7618V4.71906L28.7486 7.05698V15.6032C28.3099 15.4892 27.8579 15.4094 27.384 15.4094C24.3743 15.4094 21.9256 17.8572 21.9256 20.8658C21.9256 21.8282 22.4562 23.1547 23.1658 24.5054L20.5609 23.7618ZM27.384 28.5908C25.8841 26.528 23.2902 22.6022 23.2902 20.8657C23.2902 18.6091 25.1265 16.7734 27.384 16.7734C29.6415 16.7734 31.4779 18.6091 31.4779 20.8657C31.4779 22.6022 28.8839 26.528 27.384 28.5908Z" fill="url(#paint0_linear_2_455)"/>
<path d="M27.384 19.5016C26.6318 19.5016 26.0194 20.1137 26.0194 20.8657C26.0194 21.6177 26.6318 22.2298 27.384 22.2298C28.1363 22.2298 28.7486 21.6177 28.7486 20.8657C28.7486 20.1137 28.1363 19.5016 27.384 19.5016ZM27.3847 20.8657C27.3847 20.8657 27.384 20.8651 27.384 20.8644L28.0663 20.8657H27.3847Z" fill="url(#paint1_linear_2_455)"/>
</g>
<path d="M49.1708 17.9486V19.8686C48.2961 19.0792 47.3308 18.6846 46.2748 18.6846C45.1228 18.6846 44.1841 19.0686 43.4588 19.8366C42.7441 20.5939 42.3868 21.5646 42.3868 22.7486C42.3868 23.8899 42.7548 24.8446 43.4908 25.6126C44.2268 26.3699 45.1601 26.7486 46.2908 26.7486C47.3468 26.7486 48.3068 26.3379 49.1708 25.5166V27.4526C48.2748 27.9859 47.2988 28.2526 46.2428 28.2526C44.7601 28.2526 43.5015 27.7619 42.4668 26.7806C41.3255 25.7139 40.7548 24.3699 40.7548 22.7486C40.7548 21.0419 41.3255 19.6499 42.4668 18.5726C43.4481 17.6446 44.7335 17.1806 46.3228 17.1806C47.4215 17.1806 48.3708 17.4366 49.1708 17.9486ZM55.6207 25.7726L56.9327 26.5086C56.634 27.0419 56.2553 27.4526 55.7967 27.7406C55.274 28.0819 54.6127 28.2526 53.8127 28.2526C52.874 28.2526 52.1167 27.9646 51.5407 27.3886C50.8793 26.7272 50.5487 25.8686 50.5487 24.8126C50.5487 23.7032 50.906 22.7806 51.6207 22.0446C52.2287 21.4366 52.9807 21.1326 53.8767 21.1326C54.7513 21.1326 55.4713 21.4259 56.0367 22.0126C56.666 22.6632 56.9807 23.6126 56.9807 24.8606V25.0526H52.1487C52.1913 25.6179 52.3833 26.0712 52.7247 26.4126C53.0127 26.7006 53.4127 26.8446 53.9247 26.8446C54.3407 26.8446 54.698 26.7326 54.9967 26.5086C55.242 26.3166 55.45 26.0712 55.6207 25.7726ZM52.2607 23.7726H55.3807C55.3167 23.3992 55.1567 23.0952 54.9007 22.8606C54.6233 22.6046 54.2713 22.4766 53.8447 22.4766C53.3967 22.4766 53.0287 22.6206 52.7407 22.9086C52.506 23.1219 52.346 23.4099 52.2607 23.7726ZM58.6194 21.3086H61.2594C61.9314 21.3086 62.4434 21.4419 62.7954 21.7086C63.2114 22.0392 63.4194 22.4712 63.4194 23.0046C63.4194 23.6126 63.1527 24.0499 62.6194 24.3166C62.9607 24.3806 63.2647 24.5299 63.5314 24.7646C63.8834 25.0846 64.0594 25.5166 64.0594 26.0606C64.0594 26.7112 63.8141 27.2232 63.3234 27.5966C62.9181 27.8952 62.4007 28.0446 61.7714 28.0446H58.6194V21.3086ZM60.1874 23.9326H60.9874C61.2647 23.9326 61.4727 23.8846 61.6114 23.7886C61.8141 23.6606 61.9154 23.4792 61.9154 23.2446C61.9154 23.0206 61.8247 22.8446 61.6434 22.7166C61.5154 22.6312 61.2861 22.5886 60.9554 22.5886H60.1874V23.9326ZM60.1874 26.7646H61.3554C61.7074 26.7646 61.9794 26.7006 62.1714 26.5726C62.3847 26.4339 62.4914 26.2366 62.4914 25.9806C62.4914 25.7032 62.3901 25.5059 62.1874 25.3886C62.0061 25.2712 61.7447 25.2126 61.4034 25.2126H60.1874V26.7646ZM70.4175 25.7726L71.7295 26.5086C71.4309 27.0419 71.0522 27.4526 70.5935 27.7406C70.0709 28.0819 69.4095 28.2526 68.6095 28.2526C67.6709 28.2526 66.9135 27.9646 66.3375 27.3886C65.6762 26.7272 65.3455 25.8686 65.3455 24.8126C65.3455 23.7032 65.7029 22.7806 66.4175 22.0446C67.0255 21.4366 67.7775 21.1326 68.6735 21.1326C69.5482 21.1326 70.2682 21.4259 70.8335 22.0126C71.4629 22.6632 71.7775 23.6126 71.7775 24.8606V25.0526H66.9455C66.9882 25.6179 67.1802 26.0712 67.5215 26.4126C67.8095 26.7006 68.2095 26.8446 68.7215 26.8446C69.1375 26.8446 69.4949 26.7326 69.7935 26.5086C70.0389 26.3166 70.2469 26.0712 70.4175 25.7726ZM67.0575 23.7726H70.1775C70.1135 23.3992 69.9535 23.0952 69.6975 22.8606C69.4202 22.6046 69.0682 22.4766 68.6415 22.4766C68.1935 22.4766 67.8255 22.6206 67.5375 22.9086C67.3029 23.1219 67.1429 23.4099 67.0575 23.7726ZM74.9843 27.2606V31.7086H73.4163V21.3086H74.9843V22.0446C75.4963 21.4366 76.163 21.1326 76.9843 21.1326C77.9016 21.1326 78.675 21.4579 79.3043 22.1086C79.9443 22.7486 80.2643 23.5912 80.2643 24.6366C80.2643 25.7139 79.9336 26.5886 79.2723 27.2606C78.611 27.9219 77.8536 28.2526 77.0003 28.2526C76.2003 28.2526 75.5283 27.9219 74.9843 27.2606ZM76.7923 22.5406C76.259 22.5406 75.8056 22.7326 75.4323 23.1166C75.0696 23.4899 74.8883 24.0232 74.8883 24.7166C74.8883 25.3886 75.0696 25.9112 75.4323 26.2846C75.8056 26.6579 76.259 26.8446 76.7923 26.8446C77.347 26.8446 77.795 26.6366 78.1363 26.2206C78.4883 25.8046 78.6643 25.2979 78.6643 24.7006C78.6643 24.0926 78.4883 23.5806 78.1363 23.1646C77.795 22.7486 77.347 22.5406 76.7923 22.5406ZM82.5727 22.1406C83.266 21.4686 84.1247 21.1326 85.1487 21.1326C86.1727 21.1326 87.026 21.4686 87.7087 22.1406C88.402 22.8019 88.7487 23.6499 88.7487 24.6846C88.7487 25.7086 88.402 26.5619 87.7087 27.2446C87.026 27.9166 86.1727 28.2526 85.1487 28.2526C84.1247 28.2526 83.266 27.9166 82.5727 27.2446C81.89 26.5619 81.5487 25.7086 81.5487 24.6846C81.5487 23.6499 81.89 22.8019 82.5727 22.1406ZM83.6927 26.2686C84.0553 26.6526 84.5407 26.8446 85.1487 26.8446C85.7567 26.8446 86.242 26.6526 86.6047 26.2686C86.9673 25.8739 87.1487 25.3512 87.1487 24.7006C87.1487 23.9859 86.9513 23.4472 86.5567 23.0846C86.1727 22.7219 85.7033 22.5406 85.1487 22.5406C84.594 22.5406 84.1193 22.7219 83.7247 23.0846C83.3407 23.4472 83.1487 23.9859 83.1487 24.7006C83.1487 25.3512 83.33 25.8739 83.6927 26.2686ZM90.193 25.4526V23.8206H94.033V25.4526H90.193ZM97.0225 19.7886L95.9505 18.7486C96.3452 18.2259 96.8039 17.8419 97.3265 17.5966C97.8599 17.3299 98.5052 17.1966 99.2625 17.1966C100.329 17.1966 101.156 17.4792 101.743 18.0446C102.255 18.5459 102.511 19.1699 102.511 19.9166C102.511 20.4286 102.393 20.8712 102.159 21.2446C101.935 21.6286 101.615 21.9379 101.199 22.1726C101.785 22.3219 102.265 22.6366 102.639 23.1166C103.001 23.5752 103.183 24.1779 103.183 24.9246C103.183 25.8846 102.825 26.6792 102.111 27.3086C101.385 27.9272 100.425 28.2366 99.2305 28.2366C98.2172 28.2366 97.3425 27.9592 96.6065 27.4046C96.0305 26.9566 95.5772 26.3806 95.2465 25.6766L96.6865 24.9406C96.8999 25.4846 97.2305 25.9166 97.6785 26.2366C98.1479 26.5672 98.7345 26.7326 99.4385 26.7326C100.143 26.7326 100.687 26.5406 101.071 26.1566C101.412 25.8152 101.583 25.3779 101.583 24.8446C101.583 24.2899 101.375 23.8739 100.959 23.5966C100.564 23.3192 99.9185 23.1806 99.0225 23.1806H98.0625V21.6446H98.9265C99.6092 21.6446 100.121 21.5006 100.463 21.2126C100.783 20.9459 100.943 20.5832 100.943 20.1246C100.943 19.6446 100.772 19.2766 100.431 19.0206C100.153 18.8072 99.7425 18.7006 99.1985 18.7006C98.6865 18.7006 98.2545 18.8019 97.9025 19.0046C97.5612 19.1966 97.2679 19.4579 97.0225 19.7886ZM109.876 22.0926V21.3086H111.444V28.0446H109.876V27.3406C109.353 27.9486 108.681 28.2526 107.86 28.2526C106.868 28.2526 106.073 27.9006 105.476 27.1966C104.889 26.4926 104.596 25.6499 104.596 24.6686C104.596 23.6019 104.91 22.7486 105.54 22.1086C106.18 21.4579 106.958 21.1326 107.876 21.1326C108.718 21.1326 109.385 21.4526 109.876 22.0926ZM108.068 22.5406C107.513 22.5406 107.06 22.7486 106.708 23.1646C106.366 23.5806 106.196 24.0926 106.196 24.7006C106.196 25.2979 106.366 25.8046 106.708 26.2206C107.06 26.6366 107.513 26.8446 108.068 26.8446C108.601 26.8446 109.049 26.6579 109.412 26.2846C109.785 25.9112 109.972 25.3886 109.972 24.7166C109.972 24.0232 109.785 23.4899 109.412 23.1166C109.049 22.7326 108.601 22.5406 108.068 22.5406ZM113.432 21.3086H119.288V28.0446H117.72V22.7486H115V28.0446H113.432V21.3086ZM126.204 22.0926V21.3086H127.772V28.0446H126.204V27.3406C125.681 27.9486 125.009 28.2526 124.188 28.2526C123.196 28.2526 122.401 27.9006 121.804 27.1966C121.217 26.4926 120.924 25.6499 120.924 24.6686C120.924 23.6019 121.238 22.7486 121.868 22.1086C122.508 21.4579 123.286 21.1326 124.204 21.1326C125.046 21.1326 125.713 21.4526 126.204 22.0926ZM124.396 22.5406C123.841 22.5406 123.388 22.7486 123.036 23.1646C122.694 23.5806 122.524 24.0926 122.524 24.7006C122.524 25.2979 122.694 25.8046 123.036 26.2206C123.388 26.6366 123.841 26.8446 124.396 26.8446C124.929 26.8446 125.377 26.6579 125.74 26.2846C126.113 25.9112 126.3 25.3886 126.3 24.7166C126.3 24.0232 126.113 23.4899 125.74 23.1166C125.377 22.7326 124.929 22.5406 124.396 22.5406ZM130.336 21.3086H135.392V26.6046H136.416V29.9646H134.976V28.0446H130.272V29.9646H128.832V26.6046C129.376 26.5726 129.787 26.2792 130.064 25.7246C130.245 25.3299 130.336 24.7379 130.336 23.9486V21.3086ZM133.824 26.6046V22.7486H131.84V24.5406C131.84 25.5112 131.579 26.1992 131.056 26.6046H133.824ZM137.541 28.0446V21.3086H139.109V23.8046H141.893V21.3086H143.461V28.0446H141.893V25.2446H139.109V28.0446H137.541ZM145.448 28.0446V21.3086H147.016V23.6926H147.912C148.2 23.6926 148.434 23.7032 148.616 23.7246C148.797 23.7352 149.016 23.7939 149.272 23.9006C149.528 24.0072 149.752 24.1672 149.944 24.3806C150.296 24.7752 150.472 25.2659 150.472 25.8526C150.472 26.5246 150.269 27.0632 149.864 27.4686C149.682 27.6499 149.464 27.7886 149.208 27.8846C148.962 27.9699 148.754 28.0179 148.584 28.0286C148.424 28.0392 148.194 28.0446 147.896 28.0446H145.448ZM147.016 26.7006H147.736C148.12 26.7006 148.392 26.6526 148.552 26.5566C148.786 26.3859 148.904 26.1566 148.904 25.8686C148.904 25.5699 148.792 25.3459 148.568 25.1966C148.397 25.0899 148.125 25.0366 147.752 25.0366H147.016V26.7006ZM151.176 28.0446V21.3086H152.744V28.0446H151.176ZM154.729 21.3086H156.297V25.1326L160.905 20.7006V28.0446H159.337V24.1246L154.729 28.5566V21.3086ZM155.241 18.3966L156.521 18.0286C156.723 18.7219 157.161 19.0686 157.833 19.0686C158.494 19.0686 158.931 18.7219 159.145 18.0286L160.425 18.3966C160.254 19.0046 159.907 19.4739 159.385 19.8046C158.873 20.1246 158.355 20.2846 157.833 20.2846C157.31 20.2846 156.787 20.1246 156.265 19.8046C155.753 19.4739 155.411 19.0046 155.241 18.3966ZM44.5628 52.7086V49.1566C43.4108 49.1672 42.4881 48.8739 41.7948 48.2766C41.0375 47.6366 40.6588 46.7672 40.6588 45.6686C40.6588 44.5806 41.0321 43.7166 41.7788 43.0766C42.4615 42.4899 43.3895 42.1966 44.5628 42.1966V38.3726H46.1308V42.1966C47.3041 42.1966 48.2321 42.4899 48.9148 43.0766C49.6615 43.7166 50.0348 44.5806 50.0348 45.6686C50.0348 46.7672 49.6561 47.6366 48.8988 48.2766C48.2055 48.8739 47.2828 49.1672 46.1308 49.1566V52.7086H44.5628ZM44.5628 47.7486V43.6046C43.9441 43.6046 43.4535 43.7219 43.0908 43.9566C42.5361 44.2872 42.2588 44.8579 42.2588 45.6686C42.2588 46.4259 42.5201 46.9859 43.0428 47.3486C43.4481 47.6366 43.9548 47.7699 44.5628 47.7486ZM46.1308 43.6046V47.7486C46.7388 47.7699 47.2455 47.6366 47.6508 47.3486C48.1735 46.9859 48.4348 46.4259 48.4348 45.6686C48.4348 44.8579 48.1575 44.2872 47.6028 43.9566C47.2401 43.7219 46.7495 43.6046 46.1308 43.6046ZM56.4175 46.7726L57.7295 47.5086C57.4309 48.0419 57.0522 48.4526 56.5935 48.7406C56.0709 49.0819 55.4095 49.2526 54.6095 49.2526C53.6709 49.2526 52.9135 48.9646 52.3375 48.3886C51.6762 47.7272 51.3455 46.8686 51.3455 45.8126C51.3455 44.7032 51.7029 43.7806 52.4175 43.0446C53.0255 42.4366 53.7775 42.1326 54.6735 42.1326C55.5482 42.1326 56.2682 42.4259 56.8335 43.0126C57.4629 43.6632 57.7775 44.6126 57.7775 45.8606V46.0526H52.9455C52.9882 46.6179 53.1802 47.0712 53.5215 47.4126C53.8095 47.7006 54.2095 47.8446 54.7215 47.8446C55.1375 47.8446 55.4949 47.7326 55.7935 47.5086C56.0389 47.3166 56.2469 47.0712 56.4175 46.7726ZM53.0575 44.7726H56.1775C56.1135 44.3992 55.9535 44.0952 55.6975 43.8606C55.4202 43.6046 55.0682 43.4766 54.6415 43.4766C54.1935 43.4766 53.8255 43.6206 53.5375 43.9086C53.3029 44.1219 53.1429 44.4099 53.0575 44.7726ZM59.9923 42.3086H65.0483V47.6046H66.0723V50.9646H64.6323V49.0446H59.9283V50.9646H58.4883V47.6046C59.0323 47.5726 59.443 47.2792 59.7203 46.7246C59.9016 46.3299 59.9923 45.7379 59.9923 44.9486V42.3086ZM63.4803 47.6046V43.7486H61.4963V45.5406C61.4963 46.5112 61.235 47.1992 60.7123 47.6046H63.4803ZM71.9175 46.7726L73.2295 47.5086C72.9309 48.0419 72.5522 48.4526 72.0935 48.7406C71.5709 49.0819 70.9095 49.2526 70.1095 49.2526C69.1709 49.2526 68.4135 48.9646 67.8375 48.3886C67.1762 47.7272 66.8455 46.8686 66.8455 45.8126C66.8455 44.7032 67.2029 43.7806 67.9175 43.0446C68.5255 42.4366 69.2775 42.1326 70.1735 42.1326C71.0482 42.1326 71.7682 42.4259 72.3335 43.0126C72.9629 43.6632 73.2775 44.6126 73.2775 45.8606V46.0526H68.4455C68.4882 46.6179 68.6802 47.0712 69.0215 47.4126C69.3095 47.7006 69.7095 47.8446 70.2215 47.8446C70.6375 47.8446 70.9949 47.7326 71.2935 47.5086C71.5389 47.3166 71.7469 47.0712 71.9175 46.7726ZM68.5575 44.7726H71.6775C71.6135 44.3992 71.4535 44.0952 71.1975 43.8606C70.9202 43.6046 70.5682 43.4766 70.1415 43.4766C69.6935 43.4766 69.3255 43.6206 69.0375 43.9086C68.8029 44.1219 68.6429 44.4099 68.5575 44.7726ZM76.4843 48.2606V52.7086H74.9163V42.3086H76.4843V43.0446C76.9963 42.4366 77.663 42.1326 78.4843 42.1326C79.4016 42.1326 80.175 42.4579 80.8043 43.1086C81.4443 43.7486 81.7643 44.5912 81.7643 45.6366C81.7643 46.7139 81.4336 47.5886 80.7723 48.2606C80.111 48.9219 79.3536 49.2526 78.5003 49.2526C77.7003 49.2526 77.0283 48.9219 76.4843 48.2606ZM78.2923 43.5406C77.759 43.5406 77.3056 43.7326 76.9323 44.1166C76.5696 44.4899 76.3883 45.0232 76.3883 45.7166C76.3883 46.3886 76.5696 46.9112 76.9323 47.2846C77.3056 47.6579 77.759 47.8446 78.2923 47.8446C78.847 47.8446 79.295 47.6366 79.6363 47.2206C79.9883 46.8046 80.1643 46.2979 80.1643 45.7006C80.1643 45.0926 79.9883 44.5806 79.6363 44.1646C79.295 43.7486 78.847 43.5406 78.2923 43.5406ZM88.3287 43.0926V42.3086H89.8967V49.0446H88.3287V48.3406C87.806 48.9486 87.134 49.2526 86.3127 49.2526C85.3207 49.2526 84.526 48.9006 83.9287 48.1966C83.342 47.4926 83.0487 46.6499 83.0487 45.6686C83.0487 44.6019 83.3633 43.7486 83.9927 43.1086C84.6327 42.4579 85.4113 42.1326 86.3287 42.1326C87.1713 42.1326 87.838 42.4526 88.3287 43.0926ZM86.5207 43.5406C85.966 43.5406 85.5127 43.7486 85.1607 44.1646C84.8193 44.5806 84.6487 45.0926 84.6487 45.7006C84.6487 46.2979 84.8193 46.8046 85.1607 47.2206C85.5127 47.6366 85.966 47.8446 86.5207 47.8446C87.054 47.8446 87.502 47.6579 87.8647 47.2846C88.238 46.9112 88.4247 46.3886 88.4247 45.7166C88.4247 45.0232 88.238 44.4899 87.8647 44.1166C87.502 43.7326 87.054 43.5406 86.5207 43.5406ZM97.421 42.3086V49.0446H95.853V43.7486H93.869V46.4206C93.869 47.2526 93.6557 47.8979 93.229 48.3566C92.685 48.9646 91.949 49.1939 91.021 49.0446V47.6046C91.4797 47.7112 91.8477 47.6099 92.125 47.3006C92.285 47.1086 92.365 46.8152 92.365 46.4206V42.3086H97.421ZM99.4007 49.0446V42.3086H100.969V44.6926H101.865C102.153 44.6926 102.387 44.7032 102.569 44.7246C102.75 44.7352 102.969 44.7939 103.225 44.9006C103.481 45.0072 103.705 45.1672 103.897 45.3806C104.249 45.7752 104.425 46.2659 104.425 46.8526C104.425 47.5246 104.222 48.0632 103.817 48.4686C103.635 48.6499 103.417 48.7886 103.161 48.8846C102.915 48.9699 102.707 49.0179 102.537 49.0286C102.377 49.0392 102.147 49.0446 101.849 49.0446H99.4007ZM100.969 47.7006H101.689C102.073 47.7006 102.345 47.6526 102.505 47.5566C102.739 47.3859 102.857 47.1566 102.857 46.8686C102.857 46.5699 102.745 46.3459 102.521 46.1966C102.35 46.0899 102.078 46.0366 101.705 46.0366H100.969V47.7006ZM105.807 49.0446V42.3086H107.375V44.8046H110.159V42.3086H111.727V49.0446H110.159V46.2446H107.375V49.0446H105.807ZM113.713 49.0446V42.3086H115.281V44.6926H116.177C116.465 44.6926 116.7 44.7032 116.881 44.7246C117.062 44.7352 117.281 44.7939 117.537 44.9006C117.793 45.0072 118.017 45.1672 118.209 45.3806C118.561 45.7752 118.737 46.2659 118.737 46.8526C118.737 47.5246 118.534 48.0632 118.129 48.4686C117.948 48.6499 117.729 48.7886 117.473 48.8846C117.228 48.9699 117.02 49.0179 116.849 49.0286C116.689 49.0392 116.46 49.0446 116.161 49.0446H113.713ZM115.281 47.7006H116.001C116.385 47.7006 116.657 47.6526 116.817 47.5566C117.052 47.3859 117.169 47.1566 117.169 46.8686C117.169 46.5699 117.057 46.3459 116.833 46.1966C116.662 46.0899 116.39 46.0366 116.017 46.0366H115.281V47.7006ZM119.441 49.0446V42.3086H121.009V49.0446H119.441ZM122.994 42.3086H124.562V46.1326L129.17 41.7006V49.0446H127.602V45.1246L122.994 49.5566V42.3086ZM123.506 39.3966L124.786 39.0286C124.989 39.7219 125.426 40.0686 126.098 40.0686C126.76 40.0686 127.197 39.7219 127.41 39.0286L128.69 39.3966C128.52 40.0046 128.173 40.4739 127.65 40.8046C127.138 41.1246 126.621 41.2846 126.098 41.2846C125.576 41.2846 125.053 41.1246 124.53 40.8046C124.018 40.4739 123.677 40.0046 123.506 39.3966ZM135.557 43.1406C136.25 42.4686 137.109 42.1326 138.133 42.1326C139.157 42.1326 140.01 42.4686 140.693 43.1406C141.386 43.8019 141.733 44.6499 141.733 45.6846C141.733 46.7086 141.386 47.5619 140.693 48.2446C140.01 48.9166 139.157 49.2526 138.133 49.2526C137.109 49.2526 136.25 48.9166 135.557 48.2446C134.874 47.5619 134.533 46.7086 134.533 45.6846C134.533 44.6499 134.874 43.8019 135.557 43.1406ZM136.677 47.2686C137.04 47.6526 137.525 47.8446 138.133 47.8446C138.741 47.8446 139.226 47.6526 139.589 47.2686C139.952 46.8739 140.133 46.3512 140.133 45.7006C140.133 44.9859 139.936 44.4472 139.541 44.0846C139.157 43.7219 138.688 43.5406 138.133 43.5406C137.578 43.5406 137.104 43.7219 136.709 44.0846C136.325 44.4472 136.133 44.9859 136.133 45.7006C136.133 46.3512 136.314 46.8739 136.677 47.2686ZM143.369 42.3086H144.937V44.7086L147.177 42.3086H149.257L146.313 45.2526L149.417 49.0446H147.433L145.193 46.2766L144.937 46.5326V49.0446H143.369V42.3086ZM152.016 48.2606V52.7086H150.448V42.3086H152.016V43.0446C152.528 42.4366 153.194 42.1326 154.016 42.1326C154.933 42.1326 155.706 42.4579 156.336 43.1086C156.976 43.7486 157.296 44.5912 157.296 45.6366C157.296 46.7139 156.965 47.5886 156.304 48.2606C155.642 48.9219 154.885 49.2526 154.032 49.2526C153.232 49.2526 152.56 48.9219 152.016 48.2606ZM153.824 43.5406C153.29 43.5406 152.837 43.7326 152.464 44.1166C152.101 44.4899 151.92 45.0232 151.92 45.7166C151.92 46.3886 152.101 46.9112 152.464 47.2846C152.837 47.6579 153.29 47.8446 153.824 47.8446C154.378 47.8446 154.826 47.6366 155.168 47.2206C155.52 46.8046 155.696 46.2979 155.696 45.7006C155.696 45.0926 155.52 44.5806 155.168 44.1646C154.826 43.7486 154.378 43.5406 153.824 43.5406ZM158.436 52.7086L160.916 47.9886L158.036 42.3086H159.924L161.844 46.2446L163.796 42.3086H165.556L160.196 52.7086H158.436ZM166.651 49.0446V42.3086H170.779V43.7486H168.219V49.0446H166.651Z" fill="#D7DCE7"/>
<defs>
<linearGradient id="paint0_linear_2_455" x1="16.4671" y1="3.13239" x2="16.4671" y2="30.4144" gradientUnits="userSpaceOnUse">
<stop offset="0.171875" stop-color="#A4A7E2"/>
<stop offset="0.364583" stop-color="white"/>
<stop offset="0.604167" stop-color="#A4A7E2"/>
<stop offset="0.901042" stop-color="#A4A7E2"/>
<stop offset="1" stop-color="#A4A7E2"/>
</linearGradient>
<linearGradient id="paint1_linear_2_455" x1="27.384" y1="19.5016" x2="27.384" y2="22.2298" gradientUnits="userSpaceOnUse">
<stop offset="0.171875" stop-color="#A4A7E2"/>
<stop offset="0.364583" stop-color="white"/>
<stop offset="0.604167" stop-color="#A4A7E2"/>
<stop offset="0.901042" stop-color="#A4A7E2"/>
<stop offset="1" stop-color="#A4A7E2"/>
</linearGradient>
<clipPath id="clip0_2_455">
<rect width="32.7508" height="32.7384" fill="white" transform="translate(0.0916443 0.404236)"/>
</clipPath>
</defs>
</svg>
