<svg width="186" height="36" viewBox="0 0 186 36" fill="none" xmlns="http://www.w3.org/2000/svg">
<g clip-path="url(#clip0_2_447)">
<path d="M30.8122 16.9178V7.29213C30.8122 6.98776 30.6103 6.71997 30.3171 6.63608L20.7648 3.90786C20.6405 3.87289 20.5113 3.8734 20.3904 3.90786L11.0253 6.58262L1.66021 3.90786C1.455 3.84993 1.2324 3.89053 1.06187 4.01912C0.891269 4.14835 0.790649 4.35015 0.790649 4.56397V25.0255C0.790649 25.3298 0.992528 25.5976 1.28575 25.6815L10.8381 28.4097C10.8993 28.427 10.9627 28.4357 11.0253 28.4357C11.0887 28.4357 11.1517 28.427 11.2125 28.4097L20.5776 25.735L24.831 26.9497C26.0159 28.8837 27.2852 30.5624 27.5413 30.8967C27.6706 31.0652 27.8705 31.1638 28.083 31.1638C28.2956 31.1638 28.4955 31.0652 28.6248 30.8967C29.1278 30.2401 33.5415 24.4027 33.5415 21.6152C33.5415 19.6048 32.4358 17.8644 30.8122 16.9178ZM10.343 26.8491L2.15525 24.5112V5.4685L10.343 7.80641V26.8491ZM19.8953 24.5107L11.7076 26.8492V7.80686L19.8953 5.46837V24.5107ZM21.2599 24.5112V5.4685L29.4476 7.80641V16.3526C29.0089 16.2386 28.557 16.1589 28.083 16.1589C25.0733 16.1589 22.6246 18.6066 22.6246 21.6152C22.6246 22.5776 23.1552 23.9041 23.8648 25.2549L21.2599 24.5112ZM28.083 29.3402C26.5831 27.2774 23.9892 23.3516 23.9892 21.6152C23.9892 19.3585 25.8255 17.5229 28.083 17.5229C30.3405 17.5229 32.1769 19.3585 32.1769 21.6152C32.1769 23.3516 29.5829 27.2774 28.083 29.3402Z" fill="#A4A7E2" fill-opacity="0.4"/>
<path d="M28.083 20.2511C27.3308 20.2511 26.7184 20.8632 26.7184 21.6151C26.7184 22.3671 27.3308 22.9792 28.083 22.9792C28.8353 22.9792 29.4476 22.3672 29.4476 21.6151C29.4476 20.8631 28.8353 20.2511 28.083 20.2511ZM28.0837 21.6151C28.0837 21.6151 28.083 21.6145 28.083 21.6138L28.7653 21.6151H28.0837Z" fill="#A4A7E2" fill-opacity="0.4"/>
</g>
<path d="M44.0248 14.6079V5.26988H45.0608V13.6279H49.7928V5.26988H50.8288V13.6279H51.8928V16.5679H50.9128V14.6079H44.0248ZM57.3543 12.6619L58.1943 13.1239C57.9983 13.4972 57.7603 13.8099 57.4803 14.0619C56.9483 14.5379 56.3043 14.7759 55.5483 14.7759C54.7643 14.7759 54.0877 14.5239 53.5183 14.0199C52.9583 13.5065 52.6783 12.7459 52.6783 11.7379C52.6783 10.8512 52.9303 10.1185 53.4343 9.53988C53.9477 8.95188 54.6337 8.65788 55.4923 8.65788C56.463 8.65788 57.1957 9.01255 57.6903 9.72188C58.0823 10.2819 58.2643 11.0099 58.2363 11.9059H53.7143C53.7237 12.4939 53.9057 12.9699 54.2603 13.3339C54.615 13.6979 55.049 13.8799 55.5623 13.8799C56.0197 13.8799 56.4163 13.7399 56.7523 13.4599C57.0137 13.2359 57.2143 12.9699 57.3543 12.6619ZM53.7843 11.0659H57.2003C57.1163 10.6085 56.9157 10.2445 56.5983 9.97388C56.2903 9.69388 55.9217 9.55388 55.4923 9.55388C55.0723 9.55388 54.699 9.69855 54.3723 9.98788C54.055 10.2679 53.859 10.6272 53.7843 11.0659ZM59.7826 14.6079V8.79788H60.7906V11.1779H63.5346V8.79788H64.5426V14.6079H63.5346V12.1019H60.7906V14.6079H59.7826ZM70.2488 9.72188H68.4288V14.6079H67.4208V9.72188H65.6008V8.79788H70.2488V9.72188ZM72.316 13.7959V17.8279H71.308V8.79788H72.316V9.60988C72.8293 8.97521 73.492 8.65788 74.304 8.65788C75.172 8.65788 75.858 8.96588 76.362 9.58188C76.8753 10.1885 77.132 10.9072 77.132 11.7379C77.132 12.5779 76.88 13.2965 76.376 13.8939C75.872 14.4819 75.1953 14.7759 74.346 14.7759C73.4966 14.7759 72.82 14.4492 72.316 13.7959ZM74.206 13.8799C74.7753 13.8799 75.2326 13.6745 75.578 13.2639C75.9233 12.8439 76.096 12.3352 76.096 11.7379C76.096 11.0659 75.9046 10.5339 75.522 10.1419C75.1393 9.74988 74.696 9.55388 74.192 9.55388C73.688 9.55388 73.24 9.74988 72.848 10.1419C72.456 10.5339 72.26 11.0612 72.26 11.7239C72.26 12.3305 72.4373 12.8439 72.792 13.2639C73.156 13.6745 73.6273 13.8799 74.206 13.8799ZM83.1291 9.62388V8.79788H84.1371V14.6079H83.1291V13.7959C82.6251 14.4492 81.9624 14.7759 81.1411 14.7759C80.3571 14.7759 79.6898 14.5052 79.1391 13.9639C78.5884 13.4225 78.3131 12.6665 78.3131 11.6959C78.3131 10.7439 78.5838 10.0019 79.1251 9.46988C79.6758 8.92855 80.3478 8.65788 81.1411 8.65788C81.9811 8.65788 82.6438 8.97988 83.1291 9.62388ZM81.2531 9.55388C80.7211 9.55388 80.2684 9.74521 79.8951 10.1279C79.5311 10.5012 79.3491 11.0239 79.3491 11.6959C79.3491 12.3399 79.5171 12.8672 79.8531 13.2779C80.1984 13.6792 80.6651 13.8799 81.2531 13.8799C81.8411 13.8799 82.3078 13.6699 82.6531 13.2499C83.0078 12.8299 83.1851 12.3165 83.1851 11.7099C83.1851 11.0192 82.9891 10.4872 82.5971 10.1139C82.2051 9.74055 81.7571 9.55388 81.2531 9.55388ZM90.4422 8.79788V14.6079H89.4342V9.72188H87.3622V12.3399C87.3622 13.0959 87.2129 13.6559 86.9142 14.0199C86.5782 14.4305 86.1116 14.6359 85.5142 14.6359C85.4396 14.6359 85.3369 14.6265 85.2062 14.6079V13.6839C85.2996 13.7025 85.3742 13.7119 85.4302 13.7119C85.7569 13.7119 85.9996 13.5859 86.1582 13.3339C86.2889 13.1285 86.3542 12.7972 86.3542 12.3399V8.79788H90.4422ZM92.349 14.6079V8.79788H93.357V11.0239H94.393C95.1956 11.0239 95.7836 11.2152 96.157 11.5979C96.4556 11.8965 96.605 12.3025 96.605 12.8159C96.605 13.3572 96.4323 13.7912 96.087 14.1179C95.7416 14.4445 95.1723 14.6079 94.379 14.6079H92.349ZM93.357 13.7119H94.295C94.715 13.7119 95.0136 13.6605 95.191 13.5579C95.443 13.3899 95.569 13.1425 95.569 12.8159C95.569 12.4799 95.4476 12.2372 95.205 12.0879C95.037 11.9759 94.7383 11.9199 94.309 11.9199H93.357V13.7119ZM97.9544 14.6079V8.79788H98.9624V11.1779H101.706V8.79788H102.714V14.6079H101.706V12.1019H98.9624V14.6079H97.9544ZM104.613 14.6079V8.79788H105.621V11.0239H106.657C107.459 11.0239 108.047 11.2152 108.421 11.5979C108.719 11.8965 108.869 12.3025 108.869 12.8159C108.869 13.3572 108.696 13.7912 108.351 14.1179C108.005 14.4445 107.436 14.6079 106.643 14.6079H104.613ZM105.621 13.7119H106.559C106.979 13.7119 107.277 13.6605 107.455 13.5579C107.707 13.3899 107.833 13.1425 107.833 12.8159C107.833 12.4799 107.711 12.2372 107.469 12.0879C107.301 11.9759 107.002 11.9199 106.573 11.9199H105.621V13.7119ZM109.569 14.6079V8.79788H110.577V14.6079H109.569ZM112.474 8.79788H113.482V12.6339L117.458 8.34988V14.6079H116.45V10.7299L112.474 15.0139V8.79788ZM112.978 6.29188L113.818 5.96988C113.986 6.52988 114.383 6.80988 115.008 6.80988C115.633 6.80988 116.03 6.52988 116.198 5.96988L117.038 6.29188C116.889 6.71188 116.632 7.04321 116.268 7.28588C115.913 7.52855 115.493 7.64988 115.008 7.64988C114.523 7.64988 114.098 7.52855 113.734 7.28588C113.379 7.04321 113.127 6.71188 112.978 6.29188ZM46.8668 35.8279V32.7059C45.8495 32.7059 45.0328 32.4539 44.4168 31.9499C43.7448 31.4085 43.4088 30.6572 43.4088 29.6959C43.4088 28.7439 43.7401 27.9972 44.4028 27.4559C45.0001 26.9519 45.8215 26.6999 46.8668 26.6999V23.2699H47.8748V26.6999C48.9201 26.6999 49.7415 26.9519 50.3388 27.4559C51.0015 27.9972 51.3328 28.7439 51.3328 29.6959C51.3328 30.6572 50.9968 31.4085 50.3248 31.9499C49.7088 32.4539 48.8921 32.7059 47.8748 32.7059V35.8279H46.8668ZM46.8668 31.8099V27.5959C46.2041 27.5959 45.6861 27.7172 45.3128 27.9599C44.7341 28.3239 44.4448 28.9025 44.4448 29.6959C44.4448 30.4425 44.7155 31.0072 45.2568 31.3899C45.6488 31.6699 46.1855 31.8099 46.8668 31.8099ZM47.8748 27.5959V31.8099C48.5561 31.8099 49.0928 31.6699 49.4848 31.3899C50.0261 31.0072 50.2968 30.4425 50.2968 29.6959C50.2968 28.9025 50.0075 28.3239 49.4288 27.9599C49.0555 27.7172 48.5375 27.5959 47.8748 27.5959ZM57.1903 30.6619L58.0303 31.1239C57.8343 31.4972 57.5963 31.8099 57.3163 32.0619C56.7843 32.5379 56.1403 32.7759 55.3843 32.7759C54.6003 32.7759 53.9236 32.5239 53.3543 32.0199C52.7943 31.5065 52.5143 30.7459 52.5143 29.7379C52.5143 28.8512 52.7663 28.1185 53.2703 27.5399C53.7836 26.9519 54.4696 26.6579 55.3283 26.6579C56.2989 26.6579 57.0316 27.0125 57.5263 27.7219C57.9183 28.2819 58.1003 29.0099 58.0723 29.9059H53.5503C53.5596 30.4939 53.7416 30.9699 54.0963 31.3339C54.4509 31.6979 54.8849 31.8799 55.3983 31.8799C55.8556 31.8799 56.2523 31.7399 56.5883 31.4599C56.8496 31.2359 57.0503 30.9699 57.1903 30.6619ZM53.6203 29.0659H57.0363C56.9523 28.6085 56.7516 28.2445 56.4343 27.9739C56.1263 27.6939 55.7576 27.5539 55.3283 27.5539C54.9083 27.5539 54.5349 27.6985 54.2083 27.9879C53.8909 28.2679 53.6949 28.6272 53.6203 29.0659ZM60.0385 26.7979H64.1265V31.6839H64.9945V34.1479H64.0705V32.6079H59.6465V34.1479H58.7225V31.6839C59.2078 31.6745 59.5672 31.4225 59.8005 30.9279C59.9592 30.6012 60.0385 30.0879 60.0385 29.3879V26.7979ZM63.1185 31.6839V27.7219H61.0465V29.9059C61.0465 30.6805 60.8132 31.2732 60.3465 31.6839H63.1185ZM70.37 30.6619L71.21 31.1239C71.014 31.4972 70.776 31.8099 70.496 32.0619C69.964 32.5379 69.32 32.7759 68.564 32.7759C67.78 32.7759 67.1033 32.5239 66.534 32.0199C65.974 31.5065 65.694 30.7459 65.694 29.7379C65.694 28.8512 65.946 28.1185 66.45 27.5399C66.9633 26.9519 67.6493 26.6579 68.508 26.6579C69.4786 26.6579 70.2113 27.0125 70.706 27.7219C71.098 28.2819 71.28 29.0099 71.252 29.9059H66.73C66.7393 30.4939 66.9213 30.9699 67.276 31.3339C67.6306 31.6979 68.0646 31.8799 68.578 31.8799C69.0353 31.8799 69.432 31.7399 69.768 31.4599C70.0293 31.2359 70.23 30.9699 70.37 30.6619ZM66.8 29.0659H70.216C70.132 28.6085 69.9313 28.2445 69.614 27.9739C69.306 27.6939 68.9373 27.5539 68.508 27.5539C68.088 27.5539 67.7146 27.6985 67.388 27.9879C67.0706 28.2679 66.8746 28.6272 66.8 29.0659ZM73.8062 31.7959V35.8279H72.7982V26.7979H73.8062V27.6099C74.3195 26.9752 74.9822 26.6579 75.7942 26.6579C76.6622 26.6579 77.3482 26.9659 77.8522 27.5819C78.3655 28.1885 78.6222 28.9072 78.6222 29.7379C78.6222 30.5779 78.3702 31.2965 77.8662 31.8939C77.3622 32.4819 76.6855 32.7759 75.8362 32.7759C74.9869 32.7759 74.3102 32.4492 73.8062 31.7959ZM75.6962 31.8799C76.2655 31.8799 76.7229 31.6745 77.0682 31.2639C77.4135 30.8439 77.5862 30.3352 77.5862 29.7379C77.5862 29.0659 77.3949 28.5339 77.0122 28.1419C76.6295 27.7499 76.1862 27.5539 75.6822 27.5539C75.1782 27.5539 74.7302 27.7499 74.3382 28.1419C73.9462 28.5339 73.7502 29.0612 73.7502 29.7239C73.7502 30.3305 73.9275 30.8439 74.2822 31.2639C74.6462 31.6745 75.1175 31.8799 75.6962 31.8799ZM84.6193 27.6239V26.7979H85.6273V32.6079H84.6193V31.7959C84.1153 32.4492 83.4527 32.7759 82.6313 32.7759C81.8473 32.7759 81.18 32.5052 80.6293 31.9639C80.0787 31.4225 79.8033 30.6665 79.8033 29.6959C79.8033 28.7439 80.074 28.0019 80.6153 27.4699C81.166 26.9285 81.838 26.6579 82.6313 26.6579C83.4713 26.6579 84.134 26.9799 84.6193 27.6239ZM82.7433 27.5539C82.2113 27.5539 81.7587 27.7452 81.3853 28.1279C81.0213 28.5012 80.8393 29.0239 80.8393 29.6959C80.8393 30.3399 81.0073 30.8672 81.3433 31.2779C81.6887 31.6792 82.1553 31.8799 82.7433 31.8799C83.3313 31.8799 83.798 31.6699 84.1433 31.2499C84.498 30.8299 84.6753 30.3165 84.6753 29.7099C84.6753 29.0192 84.4793 28.4872 84.0873 28.1139C83.6953 27.7405 83.2473 27.5539 82.7433 27.5539ZM91.9325 26.7979V32.6079H90.9245V27.7219H88.8525V30.3399C88.8525 31.0959 88.7031 31.6559 88.4045 32.0199C88.0685 32.4305 87.6018 32.6359 87.0045 32.6359C86.9298 32.6359 86.8271 32.6265 86.6965 32.6079V31.6839C86.7898 31.7025 86.8645 31.7119 86.9205 31.7119C87.2471 31.7119 87.4898 31.5859 87.6485 31.3339C87.7791 31.1285 87.8445 30.7972 87.8445 30.3399V26.7979H91.9325ZM93.8392 32.6079V26.7979H94.8472V29.0239H95.8832C96.6859 29.0239 97.2739 29.2152 97.6472 29.5979C97.9459 29.8965 98.0952 30.3025 98.0952 30.8159C98.0952 31.3572 97.9225 31.7912 97.5772 32.1179C97.2319 32.4445 96.6625 32.6079 95.8692 32.6079H93.8392ZM94.8472 31.7119H95.7852C96.2052 31.7119 96.5039 31.6605 96.6812 31.5579C96.9332 31.3899 97.0592 31.1425 97.0592 30.8159C97.0592 30.4799 96.9379 30.2372 96.6952 30.0879C96.5272 29.9759 96.2285 29.9199 95.7992 29.9199H94.8472V31.7119ZM99.4447 32.6079V26.7979H100.453V29.1779H103.197V26.7979H104.205V32.6079H103.197V30.1019H100.453V32.6079H99.4447ZM106.103 32.6079V26.7979H107.111V29.0239H108.147C108.95 29.0239 109.538 29.2152 109.911 29.5979C110.21 29.8965 110.359 30.3025 110.359 30.8159C110.359 31.3572 110.186 31.7912 109.841 32.1179C109.496 32.4445 108.926 32.6079 108.133 32.6079H106.103ZM107.111 31.7119H108.049C108.469 31.7119 108.768 31.6605 108.945 31.5579C109.197 31.3899 109.323 31.1425 109.323 30.8159C109.323 30.4799 109.202 30.2372 108.959 30.0879C108.791 29.9759 108.492 29.9199 108.063 29.9199H107.111V31.7119ZM111.059 32.6079V26.7979H112.067V32.6079H111.059ZM113.964 26.7979H114.972V30.6339L118.948 26.3499V32.6079H117.94V28.7299L113.964 33.0139V26.7979ZM114.468 24.2919L115.308 23.9699C115.476 24.5299 115.873 24.8099 116.498 24.8099C117.124 24.8099 117.52 24.5299 117.688 23.9699L118.528 24.2919C118.379 24.7119 118.122 25.0432 117.758 25.2859C117.404 25.5285 116.984 25.6499 116.498 25.6499C116.013 25.6499 115.588 25.5285 115.224 25.2859C114.87 25.0432 114.618 24.7119 114.468 24.2919ZM129.036 31.9079C128.458 32.4865 127.725 32.7759 126.838 32.7759C125.952 32.7759 125.214 32.4865 124.626 31.9079C124.048 31.3292 123.758 30.6012 123.758 29.7239C123.758 28.8372 124.048 28.1045 124.626 27.5259C125.214 26.9472 125.952 26.6579 126.838 26.6579C127.725 26.6579 128.458 26.9472 129.036 27.5259C129.624 28.1045 129.918 28.8372 129.918 29.7239C129.918 30.6012 129.624 31.3292 129.036 31.9079ZM128.28 28.1279C127.888 27.7452 127.408 27.5539 126.838 27.5539C126.269 27.5539 125.784 27.7499 125.382 28.1419C124.99 28.5245 124.794 29.0519 124.794 29.7239C124.794 30.3959 124.995 30.9232 125.396 31.3059C125.798 31.6885 126.278 31.8799 126.838 31.8799C127.398 31.8799 127.879 31.6885 128.28 31.3059C128.682 30.9232 128.882 30.3959 128.882 29.7239C128.882 29.0425 128.682 28.5105 128.28 28.1279ZM131.464 26.7979H132.472V29.1779L134.824 26.7979H136.056L133.536 29.3879L136.364 32.6079H135.048L132.78 30.0599L132.472 30.3539V32.6079H131.464V26.7979ZM138.378 31.7959V35.8279H137.37V26.7979H138.378V27.6099C138.892 26.9752 139.554 26.6579 140.366 26.6579C141.234 26.6579 141.92 26.9659 142.424 27.5819C142.938 28.1885 143.194 28.9072 143.194 29.7379C143.194 30.5779 142.942 31.2965 142.438 31.8939C141.934 32.4819 141.258 32.7759 140.408 32.7759C139.559 32.7759 138.882 32.4492 138.378 31.7959ZM140.268 31.8799C140.838 31.8799 141.295 31.6745 141.64 31.2639C141.986 30.8439 142.158 30.3352 142.158 29.7379C142.158 29.0659 141.967 28.5339 141.584 28.1419C141.202 27.7499 140.758 27.5539 140.254 27.5539C139.75 27.5539 139.302 27.7499 138.91 28.1419C138.518 28.5339 138.322 29.0612 138.322 29.7239C138.322 30.3305 138.5 30.8439 138.854 31.2639C139.218 31.6745 139.69 31.8799 140.268 31.8799ZM144.726 35.8279L146.574 32.0619L143.9 26.7979H145.048L147.106 30.9559L148.996 26.7979H150.116L145.846 35.8279H144.726ZM151.179 32.6079V26.7979H154.623V27.7219H152.187V32.6079H151.179Z" fill="#D7DCE7" fill-opacity="0.4"/>
<defs>
<clipPath id="clip0_2_447">
<rect width="32.7508" height="32.7384" fill="white" transform="translate(0.790649 1.15367)"/>
</clipPath>
</defs>
</svg>
