<svg width="154" height="68" viewBox="0 0 154 68" fill="none" xmlns="http://www.w3.org/2000/svg">
<g clip-path="url(#clip0_2_439)">
<path d="M30.3307 50.9529V41.3272C30.3307 41.0228 30.1288 40.755 29.8356 40.6711L20.2833 37.9429C20.159 37.9079 20.0297 37.9085 19.9088 37.9429L10.5438 40.6177L1.1787 37.9429C0.973499 37.885 0.750895 37.9256 0.580361 38.0542C0.409762 38.1834 0.309143 38.3852 0.309143 38.599V59.0605C0.309143 59.3649 0.511021 59.6327 0.804243 59.7166L10.3565 62.4448C10.4178 62.4621 10.4812 62.4707 10.5438 62.4707C10.6072 62.4707 10.6702 62.4621 10.731 62.4448L20.0961 59.77L24.3495 60.9847C25.5344 62.9188 26.8037 64.5974 27.0598 64.9318C27.1891 65.1003 27.389 65.1989 27.6015 65.1989C27.8141 65.1989 28.014 65.1003 28.1432 64.9318C28.6463 64.2751 33.06 58.4377 33.06 55.6502C33.06 53.6398 31.9543 51.8995 30.3307 50.9529ZM9.86144 60.8842L1.67374 58.5463V39.5036L9.86144 41.8415V60.8842ZM19.4138 58.5458L11.2261 60.8843V41.8419L19.4138 39.5034V58.5458ZM20.7784 58.5463V39.5036L28.9661 41.8415V50.3877C28.5274 50.2736 28.0754 50.1939 27.6015 50.1939C24.5918 50.1939 22.1431 52.6417 22.1431 55.6503C22.1431 56.6127 22.6737 57.9392 23.3833 59.2899L20.7784 58.5463ZM27.6015 63.3753C26.1016 61.3125 23.5077 57.3867 23.5077 55.6502C23.5077 53.3936 25.344 51.5579 27.6015 51.5579C29.859 51.5579 31.6954 53.3936 31.6954 55.6502C31.6954 57.3867 29.1014 61.3125 27.6015 63.3753Z" fill="#A4A7E2" fill-opacity="0.4"/>
<path d="M27.6015 54.2861C26.8493 54.2861 26.2369 54.8982 26.2369 55.6502C26.2369 56.4021 26.8493 57.0143 27.6015 57.0143C28.3538 57.0143 28.9661 56.4022 28.9661 55.6502C28.9661 54.8982 28.3538 54.2861 27.6015 54.2861ZM27.6022 55.6502C27.6022 55.6502 27.6015 55.6495 27.6015 55.6488L28.2838 55.6502H27.6022Z" fill="#A4A7E2" fill-opacity="0.4"/>
</g>
<path d="M18.9246 9.53636H20.3526C20.5206 8.36969 21.0386 7.40369 21.9066 6.63836C22.7839 5.87303 23.8386 5.49036 25.0706 5.49036C26.4519 5.49036 27.5906 5.94303 28.4866 6.84836C29.3919 7.75369 29.8446 8.91103 29.8446 10.3204C29.8446 11.711 29.3919 12.8637 28.4866 13.7784C27.5812 14.693 26.4426 15.1504 25.0706 15.1504C23.7172 15.1504 22.5972 14.6977 21.7106 13.7924C20.8239 12.887 20.3572 11.795 20.3106 10.5164H18.9246V14.9824H17.8886V5.64436H18.9246V9.53636ZM27.7026 7.57636C26.9839 6.83903 26.1066 6.47036 25.0706 6.47036C24.0346 6.47036 23.1572 6.83903 22.4386 7.57636C21.7292 8.31369 21.3746 9.22836 21.3746 10.3204C21.3746 11.4124 21.7292 12.327 22.4386 13.0644C23.1572 13.8017 24.0346 14.1704 25.0706 14.1704C26.1066 14.1704 26.9839 13.8017 27.7026 13.0644C28.4212 12.327 28.7806 11.4124 28.7806 10.3204C28.7806 9.22836 28.4212 8.31369 27.7026 7.57636ZM34.2159 9.17236H35.2239V11.5524L37.4079 9.17236H38.5839L36.0639 11.8604L38.8359 14.9824H37.5759L35.4199 12.5324L35.2239 12.7284V14.9824H34.2159V12.7284L34.0199 12.5324L31.8639 14.9824H30.6039L33.3759 11.8604L30.8559 9.17236H32.0319L34.2159 11.5524V9.17236ZM39.8397 14.9824V9.17236H40.8477V11.5524H43.5917V9.17236H44.5997V14.9824H43.5917V12.4764H40.8477V14.9824H39.8397ZM46.4979 14.9824V9.17236H47.5059V11.3984H48.5419C49.3446 11.3984 49.9326 11.5897 50.3059 11.9724C50.6046 12.271 50.7539 12.677 50.7539 13.1904C50.7539 13.7317 50.5812 14.1657 50.2359 14.4924C49.8906 14.819 49.3212 14.9824 48.5279 14.9824H46.4979ZM47.5059 14.0864H48.4439C48.8639 14.0864 49.1626 14.035 49.3399 13.9324C49.5919 13.7644 49.7179 13.517 49.7179 13.1904C49.7179 12.8544 49.5966 12.6117 49.3539 12.4624C49.1859 12.3504 48.8872 12.2944 48.4579 12.2944H47.5059V14.0864ZM51.4539 14.9824V9.17236H52.4619V14.9824H51.4539ZM54.3592 9.17236H55.3672V13.0084L59.3432 8.72436V14.9824H58.3352V11.1044L54.3592 15.3884V9.17236ZM54.8632 6.66636L55.7032 6.34436C55.8712 6.90436 56.2679 7.18436 56.8932 7.18436C57.5186 7.18436 57.9152 6.90436 58.0832 6.34436L58.9232 6.66636C58.7739 7.08636 58.5172 7.41769 58.1532 7.66036C57.7986 7.90303 57.3786 8.02436 56.8932 8.02436C56.4079 8.02436 55.9832 7.90303 55.6192 7.66036C55.2646 7.41769 55.0126 7.08636 54.8632 6.66636ZM20.7306 36.2024V33.0804C19.7132 33.0804 18.8966 32.8284 18.2806 32.3244C17.6086 31.783 17.2726 31.0317 17.2726 30.0704C17.2726 29.1184 17.6039 28.3717 18.2666 27.8304C18.8639 27.3264 19.6852 27.0744 20.7306 27.0744V23.6444H21.7386V27.0744C22.7839 27.0744 23.6052 27.3264 24.2026 27.8304C24.8652 28.3717 25.1966 29.1184 25.1966 30.0704C25.1966 31.0317 24.8606 31.783 24.1886 32.3244C23.5726 32.8284 22.7559 33.0804 21.7386 33.0804V36.2024H20.7306ZM20.7306 32.1844V27.9704C20.0679 27.9704 19.5499 28.0917 19.1766 28.3344C18.5979 28.6984 18.3086 29.277 18.3086 30.0704C18.3086 30.817 18.5792 31.3817 19.1206 31.7644C19.5126 32.0444 20.0492 32.1844 20.7306 32.1844ZM21.7386 27.9704V32.1844C22.4199 32.1844 22.9566 32.0444 23.3486 31.7644C23.8899 31.3817 24.1606 30.817 24.1606 30.0704C24.1606 29.277 23.8712 28.6984 23.2926 28.3344C22.9192 28.0917 22.4012 27.9704 21.7386 27.9704ZM31.054 31.0364L31.894 31.4984C31.698 31.8717 31.46 32.1844 31.18 32.4364C30.648 32.9124 30.004 33.1504 29.248 33.1504C28.464 33.1504 27.7874 32.8984 27.218 32.3944C26.658 31.881 26.378 31.1204 26.378 30.1124C26.378 29.2257 26.63 28.493 27.134 27.9144C27.6474 27.3264 28.3334 27.0324 29.192 27.0324C30.1627 27.0324 30.8954 27.387 31.39 28.0964C31.782 28.6564 31.964 29.3844 31.936 30.2804H27.414C27.4234 30.8684 27.6054 31.3444 27.96 31.7084C28.3147 32.0724 28.7487 32.2544 29.262 32.2544C29.7194 32.2544 30.116 32.1144 30.452 31.8344C30.7134 31.6104 30.914 31.3444 31.054 31.0364ZM27.484 29.4404H30.9C30.816 28.983 30.6154 28.619 30.298 28.3484C29.99 28.0684 29.6214 27.9284 29.192 27.9284C28.772 27.9284 28.3987 28.073 28.072 28.3624C27.7547 28.6424 27.5587 29.0017 27.484 29.4404ZM33.9023 27.1724H37.9903V32.0584H38.8583V34.5224H37.9343V32.9824H33.5103V34.5224H32.5863V32.0584C33.0716 32.049 33.4309 31.797 33.6643 31.3024C33.8229 30.9757 33.9023 30.4624 33.9023 29.7624V27.1724ZM36.9823 32.0584V28.0964H34.9103V30.2804C34.9103 31.055 34.6769 31.6477 34.2103 32.0584H36.9823ZM44.2337 31.0364L45.0737 31.4984C44.8777 31.8717 44.6397 32.1844 44.3597 32.4364C43.8277 32.9124 43.1837 33.1504 42.4277 33.1504C41.6437 33.1504 40.9671 32.8984 40.3977 32.3944C39.8377 31.881 39.5577 31.1204 39.5577 30.1124C39.5577 29.2257 39.8097 28.493 40.3137 27.9144C40.8271 27.3264 41.5131 27.0324 42.3717 27.0324C43.3424 27.0324 44.0751 27.387 44.5697 28.0964C44.9617 28.6564 45.1437 29.3844 45.1157 30.2804H40.5937C40.6031 30.8684 40.7851 31.3444 41.1397 31.7084C41.4944 32.0724 41.9284 32.2544 42.4417 32.2544C42.8991 32.2544 43.2957 32.1144 43.6317 31.8344C43.8931 31.6104 44.0937 31.3444 44.2337 31.0364ZM40.6637 29.4404H44.0797C43.9957 28.983 43.7951 28.619 43.4777 28.3484C43.1697 28.0684 42.8011 27.9284 42.3717 27.9284C41.9517 27.9284 41.5784 28.073 41.2517 28.3624C40.9344 28.6424 40.7384 29.0017 40.6637 29.4404ZM47.67 32.1704V36.2024H46.662V27.1724H47.67V27.9844C48.1833 27.3497 48.846 27.0324 49.658 27.0324C50.526 27.0324 51.212 27.3404 51.716 27.9564C52.2293 28.563 52.486 29.2817 52.486 30.1124C52.486 30.9524 52.234 31.671 51.73 32.2684C51.226 32.8564 50.5493 33.1504 49.7 33.1504C48.8506 33.1504 48.174 32.8237 47.67 32.1704ZM49.56 32.2544C50.1293 32.2544 50.5866 32.049 50.932 31.6384C51.2773 31.2184 51.45 30.7097 51.45 30.1124C51.45 29.4404 51.2586 28.9084 50.876 28.5164C50.4933 28.1244 50.05 27.9284 49.546 27.9284C49.042 27.9284 48.594 28.1244 48.202 28.5164C47.81 28.9084 47.614 29.4357 47.614 30.0984C47.614 30.705 47.7913 31.2184 48.146 31.6384C48.51 32.049 48.9813 32.2544 49.56 32.2544ZM58.4831 27.9984V27.1724H59.4911V32.9824H58.4831V32.1704C57.9791 32.8237 57.3164 33.1504 56.4951 33.1504C55.7111 33.1504 55.0438 32.8797 54.4931 32.3384C53.9424 31.797 53.6671 31.041 53.6671 30.0704C53.6671 29.1184 53.9378 28.3764 54.4791 27.8444C55.0298 27.303 55.7018 27.0324 56.4951 27.0324C57.3351 27.0324 57.9978 27.3544 58.4831 27.9984ZM56.6071 27.9284C56.0751 27.9284 55.6224 28.1197 55.2491 28.5024C54.8851 28.8757 54.7031 29.3984 54.7031 30.0704C54.7031 30.7144 54.8711 31.2417 55.2071 31.6524C55.5524 32.0537 56.0191 32.2544 56.6071 32.2544C57.1951 32.2544 57.6618 32.0444 58.0071 31.6244C58.3618 31.2044 58.5391 30.691 58.5391 30.0844C58.5391 29.3937 58.3431 28.8617 57.9511 28.4884C57.5591 28.115 57.1111 27.9284 56.6071 27.9284ZM65.7962 27.1724V32.9824H64.7882V28.0964H62.7162V30.7144C62.7162 31.4704 62.5669 32.0304 62.2682 32.3944C61.9322 32.805 61.4656 33.0104 60.8682 33.0104C60.7936 33.0104 60.6909 33.001 60.5602 32.9824V32.0584C60.6536 32.077 60.7282 32.0864 60.7842 32.0864C61.1109 32.0864 61.3536 31.9604 61.5122 31.7084C61.6429 31.503 61.7082 31.1717 61.7082 30.7144V27.1724H65.7962ZM67.703 32.9824V27.1724H68.711V29.3984H69.747C70.5496 29.3984 71.1376 29.5897 71.511 29.9724C71.8096 30.271 71.959 30.677 71.959 31.1904C71.959 31.7317 71.7863 32.1657 71.441 32.4924C71.0956 32.819 70.5263 32.9824 69.733 32.9824H67.703ZM68.711 32.0864H69.649C70.069 32.0864 70.3676 32.035 70.545 31.9324C70.797 31.7644 70.923 31.517 70.923 31.1904C70.923 30.8544 70.8016 30.6117 70.559 30.4624C70.391 30.3504 70.0923 30.2944 69.663 30.2944H68.711V32.0864ZM73.3084 32.9824V27.1724H74.3164V29.5524H77.0604V27.1724H78.0684V32.9824H77.0604V30.4764H74.3164V32.9824H73.3084ZM79.9666 32.9824V27.1724H80.9746V29.3984H82.0106C82.8133 29.3984 83.4013 29.5897 83.7746 29.9724C84.0733 30.271 84.2226 30.677 84.2226 31.1904C84.2226 31.7317 84.05 32.1657 83.7046 32.4924C83.3593 32.819 82.79 32.9824 81.9966 32.9824H79.9666ZM80.9746 32.0864H81.9126C82.3326 32.0864 82.6313 32.035 82.8086 31.9324C83.0606 31.7644 83.1866 31.517 83.1866 31.1904C83.1866 30.8544 83.0653 30.6117 82.8226 30.4624C82.6546 30.3504 82.356 30.2944 81.9266 30.2944H80.9746V32.0864ZM84.9226 32.9824V27.1724H85.9306V32.9824H84.9226ZM87.828 27.1724H88.836V31.0084L92.812 26.7244V32.9824H91.804V29.1044L87.828 33.3884V27.1724ZM88.332 24.6664L89.172 24.3444C89.34 24.9044 89.7366 25.1844 90.362 25.1844C90.9873 25.1844 91.384 24.9044 91.552 24.3444L92.392 24.6664C92.2426 25.0864 91.986 25.4177 91.622 25.6604C91.2673 25.903 90.8473 26.0244 90.362 26.0244C89.8766 26.0244 89.452 25.903 89.088 25.6604C88.7333 25.4177 88.4813 25.0864 88.332 24.6664ZM102.9 32.2824C102.322 32.861 101.589 33.1504 100.702 33.1504C99.8155 33.1504 99.0782 32.861 98.4902 32.2824C97.9115 31.7037 97.6222 30.9757 97.6222 30.0984C97.6222 29.2117 97.9115 28.479 98.4902 27.9004C99.0782 27.3217 99.8155 27.0324 100.702 27.0324C101.589 27.0324 102.322 27.3217 102.9 27.9004C103.488 28.479 103.782 29.2117 103.782 30.0984C103.782 30.9757 103.488 31.7037 102.9 32.2824ZM102.144 28.5024C101.752 28.1197 101.272 27.9284 100.702 27.9284C100.133 27.9284 99.6475 28.1244 99.2462 28.5164C98.8542 28.899 98.6582 29.4264 98.6582 30.0984C98.6582 30.7704 98.8588 31.2977 99.2602 31.6804C99.6615 32.063 100.142 32.2544 100.702 32.2544C101.262 32.2544 101.743 32.063 102.144 31.6804C102.546 31.2977 102.746 30.7704 102.746 30.0984C102.746 29.417 102.546 28.885 102.144 28.5024ZM105.328 27.1724H106.336V29.5524L108.688 27.1724H109.92L107.4 29.7624L110.228 32.9824H108.912L106.644 30.4344L106.336 30.7284V32.9824H105.328V27.1724ZM112.242 32.1704V36.2024H111.234V27.1724H112.242V27.9844C112.756 27.3497 113.418 27.0324 114.23 27.0324C115.098 27.0324 115.784 27.3404 116.288 27.9564C116.802 28.563 117.058 29.2817 117.058 30.1124C117.058 30.9524 116.806 31.671 116.302 32.2684C115.798 32.8564 115.122 33.1504 114.272 33.1504C113.423 33.1504 112.746 32.8237 112.242 32.1704ZM114.132 32.2544C114.702 32.2544 115.159 32.049 115.504 31.6384C115.85 31.2184 116.022 30.7097 116.022 30.1124C116.022 29.4404 115.831 28.9084 115.448 28.5164C115.066 28.1244 114.622 27.9284 114.118 27.9284C113.614 27.9284 113.166 28.1244 112.774 28.5164C112.382 28.9084 112.186 29.4357 112.186 30.0984C112.186 30.705 112.364 31.2184 112.718 31.6384C113.082 32.049 113.554 32.2544 114.132 32.2544ZM118.589 36.2024L120.437 32.4364L117.763 27.1724H118.911L120.969 31.3304L122.859 27.1724H123.979L119.709 36.2024H118.589ZM125.043 32.9824V27.1724H128.487V28.0964H126.051V32.9824H125.043Z" fill="#D7DCE7" fill-opacity="0.4"/>
<defs>
<clipPath id="clip0_2_439">
<rect width="32.7508" height="32.7384" fill="white" transform="translate(0.309143 35.1887)"/>
</clipPath>
</defs>
</svg>
