<svg width="175" height="47" viewBox="0 0 175 47" fill="none" xmlns="http://www.w3.org/2000/svg">
<g clip-path="url(#clip0_2_431)">
<path d="M30.1683 16.5573V6.93155C30.1683 6.62718 29.9664 6.35939 29.6732 6.2755L20.1209 3.54728C19.9966 3.5123 19.8673 3.51282 19.7464 3.54728L10.3814 6.22204L1.01629 3.54728C0.811084 3.48935 0.588481 3.52995 0.417946 3.65854C0.247348 3.78777 0.146729 3.98957 0.146729 4.20339V24.6649C0.146729 24.9692 0.348607 25.237 0.641829 25.3209L10.1941 28.0491C10.2554 28.0665 10.3187 28.0751 10.3814 28.0751C10.4448 28.0751 10.5078 28.0665 10.5686 28.0491L19.9337 25.3744L24.187 26.5891C25.372 28.5231 26.6412 30.2018 26.8974 30.5362C27.0266 30.7047 27.2265 30.8032 27.4391 30.8032C27.6517 30.8032 27.8516 30.7047 27.9808 30.5362C28.4839 29.8795 32.8976 24.0421 32.8976 21.2546C32.8976 19.2442 31.7919 17.5039 30.1683 16.5573ZM9.69903 26.4886L1.51132 24.1506V5.10792L9.69903 7.44583V26.4886ZM19.2514 24.1501L11.0637 26.4886V7.44628L19.2514 5.10779V24.1501ZM20.616 24.1506V5.10792L28.8037 7.44583V15.992C28.365 15.878 27.913 15.7983 27.4391 15.7983C24.4294 15.7983 21.9807 18.246 21.9807 21.2546C21.9807 22.217 22.5113 23.5435 23.2209 24.8943L20.616 24.1506ZM27.4391 28.9796C25.9392 26.9168 23.3452 22.9911 23.3452 21.2546C23.3452 18.9979 25.1816 17.1623 27.4391 17.1623C29.6966 17.1623 31.533 18.9979 31.533 21.2546C31.533 22.9911 28.939 26.9168 27.4391 28.9796Z" fill="#A4A7E2" fill-opacity="0.4"/>
<path d="M27.4391 19.8905C26.6869 19.8905 26.0745 20.5026 26.0745 21.2545C26.0745 22.0065 26.6869 22.6186 27.4391 22.6186C28.1914 22.6186 28.8037 22.0066 28.8037 21.2545C28.8037 20.5025 28.1914 19.8905 27.4391 19.8905ZM27.4398 21.2545C27.4398 21.2545 27.4391 21.2539 27.4391 21.2532L28.1214 21.2545H27.4398Z" fill="#A4A7E2" fill-opacity="0.4"/>
</g>
<path d="M39.5597 15.6404H40.8197L43.7317 21.1424L46.1677 15.6404H47.2877L43.0737 24.9784H41.9537L43.1437 22.3744L39.5597 15.6404ZM48.6128 24.1664V28.1984H47.6048V19.1684H48.6128V19.9804C49.1261 19.3457 49.7888 19.0284 50.6008 19.0284C51.4688 19.0284 52.1548 19.3364 52.6588 19.9524C53.1721 20.5591 53.4288 21.2777 53.4288 22.1084C53.4288 22.9484 53.1768 23.6671 52.6728 24.2644C52.1688 24.8524 51.4921 25.1464 50.6428 25.1464C49.7935 25.1464 49.1168 24.8197 48.6128 24.1664ZM50.5028 24.2504C51.0721 24.2504 51.5295 24.0451 51.8748 23.6344C52.2201 23.2144 52.3928 22.7057 52.3928 22.1084C52.3928 21.4364 52.2015 20.9044 51.8188 20.5124C51.4361 20.1204 50.9928 19.9244 50.4888 19.9244C49.9848 19.9244 49.5368 20.1204 49.1448 20.5124C48.7528 20.9044 48.5568 21.4317 48.5568 22.0944C48.5568 22.7011 48.7341 23.2144 49.0888 23.6344C49.4528 24.0451 49.9241 24.2504 50.5028 24.2504ZM59.4259 19.9944V19.1684H60.4339V24.9784H59.4259V24.1664C58.9219 24.8197 58.2593 25.1464 57.4379 25.1464C56.6539 25.1464 55.9866 24.8757 55.4359 24.3344C54.8853 23.7931 54.6099 23.0371 54.6099 22.0664C54.6099 21.1144 54.8806 20.3724 55.4219 19.8404C55.9726 19.2991 56.6446 19.0284 57.4379 19.0284C58.2779 19.0284 58.9406 19.3504 59.4259 19.9944ZM57.5499 19.9244C57.0179 19.9244 56.5653 20.1157 56.1919 20.4984C55.8279 20.8717 55.6459 21.3944 55.6459 22.0664C55.6459 22.7104 55.8139 23.2377 56.1499 23.6484C56.4953 24.0497 56.9619 24.2504 57.5499 24.2504C58.1379 24.2504 58.6046 24.0404 58.9499 23.6204C59.3046 23.2004 59.4819 22.6871 59.4819 22.0804C59.4819 21.3897 59.2859 20.8577 58.8939 20.4844C58.5019 20.1111 58.0539 19.9244 57.5499 19.9244ZM66.7391 19.1684V24.9784H65.7311V20.0924H63.6591V22.7104C63.6591 23.4664 63.5097 24.0264 63.2111 24.3904C62.8751 24.8011 62.4084 25.0064 61.8111 25.0064C61.7364 25.0064 61.6337 24.9971 61.5031 24.9784V24.0544C61.5964 24.0731 61.6711 24.0824 61.7271 24.0824C62.0537 24.0824 62.2964 23.9564 62.4551 23.7044C62.5857 23.4991 62.6511 23.1677 62.6511 22.7104V19.1684H66.7391ZM68.6458 24.9784V19.1684H69.6538V21.3944H70.6898C71.4925 21.3944 72.0805 21.5857 72.4538 21.9684C72.7525 22.2671 72.9018 22.6731 72.9018 23.1864C72.9018 23.7277 72.7292 24.1617 72.3838 24.4884C72.0385 24.8151 71.4692 24.9784 70.6758 24.9784H68.6458ZM69.6538 24.0824H70.5918C71.0118 24.0824 71.3105 24.0311 71.4878 23.9284C71.7398 23.7604 71.8658 23.5131 71.8658 23.1864C71.8658 22.8504 71.7445 22.6077 71.5018 22.4584C71.3338 22.3464 71.0352 22.2904 70.6058 22.2904H69.6538V24.0824ZM78.8013 19.5884V20.7924C78.344 20.2137 77.7373 19.9244 76.9813 19.9244C76.412 19.9244 75.9266 20.1204 75.5253 20.5124C75.124 20.8951 74.9233 21.4224 74.9233 22.0944C74.9233 22.7664 75.124 23.2937 75.5253 23.6764C75.9266 24.0591 76.4073 24.2504 76.9673 24.2504C77.714 24.2504 78.3393 23.9471 78.8433 23.3404V24.5444C78.2926 24.9457 77.6766 25.1464 76.9953 25.1464C76.09 25.1464 75.3433 24.8617 74.7553 24.2924C74.1766 23.7137 73.8873 22.9857 73.8873 22.1084C73.8873 21.2217 74.1813 20.4891 74.7693 19.9104C75.3573 19.3224 76.0993 19.0284 76.9953 19.0284C77.6673 19.0284 78.2693 19.2151 78.8013 19.5884ZM80.39 19.1684H81.398V21.5484L83.75 19.1684H84.982L82.462 21.7584L85.29 24.9784H83.974L81.706 22.4304L81.398 22.7244V24.9784H80.39V19.1684ZM86.2962 19.1684H87.3042V23.0044L91.2802 18.7204V24.9784H90.2722V21.1004L86.2962 25.3844V19.1684ZM93.1868 19.1684H94.1948V23.0044L98.1708 18.7204V24.9784H97.1628V21.1004L93.1868 25.3844V19.1684ZM93.6908 16.6624L94.5308 16.3404C94.6988 16.9004 95.0955 17.1804 95.7208 17.1804C96.3462 17.1804 96.7428 16.9004 96.9108 16.3404L97.7508 16.6624C97.6015 17.0824 97.3448 17.4137 96.9808 17.6564C96.6262 17.8991 96.2062 18.0204 95.7208 18.0204C95.2355 18.0204 94.8108 17.8991 94.4468 17.6564C94.0922 17.4137 93.8402 17.0824 93.6908 16.6624ZM43.4937 46.1984V43.0764C42.4764 43.0764 41.6597 42.8244 41.0437 42.3204C40.3717 41.7791 40.0357 41.0277 40.0357 40.0664C40.0357 39.1144 40.3671 38.3677 41.0297 37.8264C41.6271 37.3224 42.4484 37.0704 43.4937 37.0704V33.6404H44.5017V37.0704C45.5471 37.0704 46.3684 37.3224 46.9657 37.8264C47.6284 38.3677 47.9597 39.1144 47.9597 40.0664C47.9597 41.0277 47.6237 41.7791 46.9517 42.3204C46.3357 42.8244 45.5191 43.0764 44.5017 43.0764V46.1984H43.4937ZM43.4937 42.1804V37.9664C42.8311 37.9664 42.3131 38.0877 41.9397 38.3304C41.3611 38.6944 41.0717 39.2731 41.0717 40.0664C41.0717 40.8131 41.3424 41.3777 41.8837 41.7604C42.2757 42.0404 42.8124 42.1804 43.4937 42.1804ZM44.5017 37.9664V42.1804C45.1831 42.1804 45.7197 42.0404 46.1117 41.7604C46.6531 41.3777 46.9237 40.8131 46.9237 40.0664C46.9237 39.2731 46.6344 38.6944 46.0557 38.3304C45.6824 38.0877 45.1644 37.9664 44.5017 37.9664ZM53.8172 41.0324L54.6572 41.4944C54.4612 41.8677 54.2232 42.1804 53.9432 42.4324C53.4112 42.9084 52.7672 43.1464 52.0112 43.1464C51.2272 43.1464 50.5505 42.8944 49.9812 42.3904C49.4212 41.8771 49.1412 41.1164 49.1412 40.1084C49.1412 39.2217 49.3932 38.4891 49.8972 37.9104C50.4105 37.3224 51.0965 37.0284 51.9552 37.0284C52.9259 37.0284 53.6585 37.3831 54.1532 38.0924C54.5452 38.6524 54.7272 39.3804 54.6992 40.2764H50.1772C50.1865 40.8644 50.3685 41.3404 50.7232 41.7044C51.0779 42.0684 51.5119 42.2504 52.0252 42.2504C52.4825 42.2504 52.8792 42.1104 53.2152 41.8304C53.4765 41.6064 53.6772 41.3404 53.8172 41.0324ZM50.2472 39.4364H53.6632C53.5792 38.9791 53.3785 38.6151 53.0612 38.3444C52.7532 38.0644 52.3845 37.9244 51.9552 37.9244C51.5352 37.9244 51.1619 38.0691 50.8352 38.3584C50.5179 38.6384 50.3219 38.9977 50.2472 39.4364ZM56.6654 37.1684H60.7534V42.0544H61.6214V44.5184H60.6974V42.9784H56.2734V44.5184H55.3494V42.0544C55.8348 42.0451 56.1941 41.7931 56.4274 41.2984C56.5861 40.9717 56.6654 40.4584 56.6654 39.7584V37.1684ZM59.7454 42.0544V38.0924H57.6734V40.2764C57.6734 41.0511 57.4401 41.6437 56.9734 42.0544H59.7454ZM66.9969 41.0324L67.8369 41.4944C67.6409 41.8677 67.4029 42.1804 67.1229 42.4324C66.5909 42.9084 65.9469 43.1464 65.1909 43.1464C64.4069 43.1464 63.7302 42.8944 63.1609 42.3904C62.6009 41.8771 62.3209 41.1164 62.3209 40.1084C62.3209 39.2217 62.5729 38.4891 63.0769 37.9104C63.5902 37.3224 64.2762 37.0284 65.1349 37.0284C66.1055 37.0284 66.8382 37.3831 67.3329 38.0924C67.7249 38.6524 67.9069 39.3804 67.8789 40.2764H63.3569C63.3662 40.8644 63.5482 41.3404 63.9029 41.7044C64.2575 42.0684 64.6915 42.2504 65.2049 42.2504C65.6622 42.2504 66.0589 42.1104 66.3949 41.8304C66.6562 41.6064 66.8569 41.3404 66.9969 41.0324ZM63.4269 39.4364H66.8429C66.7589 38.9791 66.5582 38.6151 66.2409 38.3444C65.9329 38.0644 65.5642 37.9244 65.1349 37.9244C64.7149 37.9244 64.3415 38.0691 64.0149 38.3584C63.6975 38.6384 63.5015 38.9977 63.4269 39.4364ZM70.4331 42.1664V46.1984H69.4251V37.1684H70.4331V37.9804C70.9464 37.3457 71.6091 37.0284 72.4211 37.0284C73.2891 37.0284 73.9751 37.3364 74.4791 37.9524C74.9924 38.5591 75.2491 39.2777 75.2491 40.1084C75.2491 40.9484 74.9971 41.6671 74.4931 42.2644C73.9891 42.8524 73.3124 43.1464 72.4631 43.1464C71.6138 43.1464 70.9371 42.8197 70.4331 42.1664ZM72.3231 42.2504C72.8924 42.2504 73.3498 42.0451 73.6951 41.6344C74.0404 41.2144 74.2131 40.7057 74.2131 40.1084C74.2131 39.4364 74.0218 38.9044 73.6391 38.5124C73.2564 38.1204 72.8131 37.9244 72.3091 37.9244C71.8051 37.9244 71.3571 38.1204 70.9651 38.5124C70.5731 38.9044 70.3771 39.4317 70.3771 40.0944C70.3771 40.7011 70.5544 41.2144 70.9091 41.6344C71.2731 42.0451 71.7444 42.2504 72.3231 42.2504ZM81.2463 37.9944V37.1684H82.2543V42.9784H81.2463V42.1664C80.7423 42.8197 80.0796 43.1464 79.2583 43.1464C78.4743 43.1464 77.8069 42.8757 77.2563 42.3344C76.7056 41.7931 76.4303 41.0371 76.4303 40.0664C76.4303 39.1144 76.7009 38.3724 77.2423 37.8404C77.7929 37.2991 78.4649 37.0284 79.2583 37.0284C80.0983 37.0284 80.7609 37.3504 81.2463 37.9944ZM79.3703 37.9244C78.8383 37.9244 78.3856 38.1157 78.0123 38.4984C77.6483 38.8717 77.4663 39.3944 77.4663 40.0664C77.4663 40.7104 77.6343 41.2377 77.9703 41.6484C78.3156 42.0497 78.7823 42.2504 79.3703 42.2504C79.9583 42.2504 80.4249 42.0404 80.7703 41.6204C81.1249 41.2004 81.3023 40.6871 81.3023 40.0804C81.3023 39.3897 81.1063 38.8577 80.7143 38.4844C80.3223 38.1111 79.8743 37.9244 79.3703 37.9244ZM88.5594 37.1684V42.9784H87.5514V38.0924H85.4794V40.7104C85.4794 41.4664 85.3301 42.0264 85.0314 42.3904C84.6954 42.8011 84.2287 43.0064 83.6314 43.0064C83.5567 43.0064 83.4541 42.9971 83.3234 42.9784V42.0544C83.4167 42.0731 83.4914 42.0824 83.5474 42.0824C83.8741 42.0824 84.1167 41.9564 84.2754 41.7044C84.4061 41.4991 84.4714 41.1677 84.4714 40.7104V37.1684H88.5594ZM90.4661 42.9784V37.1684H91.4741V39.3944H92.5101C93.3128 39.3944 93.9008 39.5857 94.2741 39.9684C94.5728 40.2671 94.7221 40.6731 94.7221 41.1864C94.7221 41.7277 94.5495 42.1617 94.2041 42.4884C93.8588 42.8151 93.2895 42.9784 92.4961 42.9784H90.4661ZM91.4741 42.0824H92.4121C92.8321 42.0824 93.1308 42.0311 93.3081 41.9284C93.5601 41.7604 93.6861 41.5131 93.6861 41.1864C93.6861 40.8504 93.5648 40.6077 93.3221 40.4584C93.1541 40.3464 92.8555 40.2904 92.4261 40.2904H91.4741V42.0824ZM96.0716 42.9784V37.1684H97.0796V39.5484H99.8236V37.1684H100.832V42.9784H99.8236V40.4724H97.0796V42.9784H96.0716ZM102.73 42.9784V37.1684H103.738V39.3944H104.774C105.576 39.3944 106.164 39.5857 106.538 39.9684C106.836 40.2671 106.986 40.6731 106.986 41.1864C106.986 41.7277 106.813 42.1617 106.468 42.4884C106.122 42.8151 105.553 42.9784 104.76 42.9784H102.73ZM103.738 42.0824H104.676C105.096 42.0824 105.394 42.0311 105.572 41.9284C105.824 41.7604 105.95 41.5131 105.95 41.1864C105.95 40.8504 105.828 40.6077 105.586 40.4584C105.418 40.3464 105.119 40.2904 104.69 40.2904H103.738V42.0824ZM107.686 42.9784V37.1684H108.694V42.9784H107.686ZM110.591 37.1684H111.599V41.0044L115.575 36.7204V42.9784H114.567V39.1004L110.591 43.3844V37.1684ZM111.095 34.6624L111.935 34.3404C112.103 34.9004 112.5 35.1804 113.125 35.1804C113.75 35.1804 114.147 34.9004 114.315 34.3404L115.155 34.6624C115.006 35.0824 114.749 35.4137 114.385 35.6564C114.03 35.8991 113.61 36.0204 113.125 36.0204C112.64 36.0204 112.215 35.8991 111.851 35.6564C111.496 35.4137 111.244 35.0824 111.095 34.6624ZM125.663 42.2784C125.085 42.8571 124.352 43.1464 123.465 43.1464C122.579 43.1464 121.841 42.8571 121.253 42.2784C120.675 41.6997 120.385 40.9717 120.385 40.0944C120.385 39.2077 120.675 38.4751 121.253 37.8964C121.841 37.3177 122.579 37.0284 123.465 37.0284C124.352 37.0284 125.085 37.3177 125.663 37.8964C126.251 38.4751 126.545 39.2077 126.545 40.0944C126.545 40.9717 126.251 41.6997 125.663 42.2784ZM124.907 38.4984C124.515 38.1157 124.035 37.9244 123.465 37.9244C122.896 37.9244 122.411 38.1204 122.009 38.5124C121.617 38.8951 121.421 39.4224 121.421 40.0944C121.421 40.7664 121.622 41.2937 122.023 41.6764C122.425 42.0591 122.905 42.2504 123.465 42.2504C124.025 42.2504 124.506 42.0591 124.907 41.6764C125.309 41.2937 125.509 40.7664 125.509 40.0944C125.509 39.4131 125.309 38.8811 124.907 38.4984ZM128.091 37.1684H129.099V39.5484L131.451 37.1684H132.683L130.163 39.7584L132.991 42.9784H131.675L129.407 40.4304L129.099 40.7244V42.9784H128.091V37.1684ZM135.005 42.1664V46.1984H133.997V37.1684H135.005V37.9804C135.519 37.3457 136.181 37.0284 136.993 37.0284C137.861 37.0284 138.547 37.3364 139.051 37.9524C139.565 38.5591 139.821 39.2777 139.821 40.1084C139.821 40.9484 139.569 41.6671 139.065 42.2644C138.561 42.8524 137.885 43.1464 137.035 43.1464C136.186 43.1464 135.509 42.8197 135.005 42.1664ZM136.895 42.2504C137.465 42.2504 137.922 42.0451 138.267 41.6344C138.613 41.2144 138.785 40.7057 138.785 40.1084C138.785 39.4364 138.594 38.9044 138.211 38.5124C137.829 38.1204 137.385 37.9244 136.881 37.9244C136.377 37.9244 135.929 38.1204 135.537 38.5124C135.145 38.9044 134.949 39.4317 134.949 40.0944C134.949 40.7011 135.127 41.2144 135.481 41.6344C135.845 42.0451 136.317 42.2504 136.895 42.2504ZM141.353 46.1984L143.201 42.4324L140.527 37.1684H141.675L143.733 41.3264L145.623 37.1684H146.743L142.473 46.1984H141.353ZM147.806 42.9784V37.1684H151.25V38.0924H148.814V42.9784H147.806Z" fill="#D7DCE7" fill-opacity="0.4"/>
<defs>
<clipPath id="clip0_2_431">
<rect width="32.7508" height="32.7384" fill="white" transform="translate(0.146729 0.793091)"/>
</clipPath>
</defs>
</svg>
