<svg width="176" height="47" viewBox="0 0 176 47" fill="none" xmlns="http://www.w3.org/2000/svg">
<g clip-path="url(#clip0_2_423)">
<path d="M30.2884 16.581V6.95526C30.2884 6.65089 30.0865 6.3831 29.7933 6.29921L20.2409 3.57099C20.1167 3.53602 19.9874 3.53653 19.8665 3.57099L10.5014 6.24576L1.13634 3.57099C0.93114 3.51306 0.708537 3.55366 0.538002 3.68225C0.367404 3.81148 0.266785 4.01328 0.266785 4.2271V24.6886C0.266785 24.9929 0.468663 25.2607 0.761885 25.3446L10.3142 28.0728C10.3755 28.0902 10.4388 28.0988 10.5014 28.0988C10.5648 28.0988 10.6279 28.0902 10.6886 28.0728L20.0537 25.3981L24.3071 26.6128C25.4921 28.5469 26.7613 30.2255 27.0174 30.5599C27.1467 30.7284 27.3466 30.827 27.5592 30.827C27.7717 30.827 27.9716 30.7284 28.1009 30.5599C28.6039 29.9032 33.0176 24.0658 33.0176 21.2783C33.0176 19.2679 31.9119 17.5276 30.2884 16.581ZM9.81909 26.5123L1.63138 24.1744V5.13163L9.81909 7.46954V26.5123ZM19.3715 24.1738L11.1837 26.5123V7.46999L19.3715 5.1315V24.1738ZM20.736 24.1744V5.13163L28.9238 7.46954V16.0157C28.485 15.9017 28.0331 15.822 27.5592 15.822C24.5494 15.822 22.1007 18.2698 22.1007 21.2784C22.1007 22.2407 22.6314 23.5672 23.341 24.918L20.736 24.1744ZM27.5592 29.0033C26.0593 26.9406 23.4653 23.0148 23.4653 21.2783C23.4653 19.0216 25.3017 17.186 27.5592 17.186C29.8167 17.186 31.653 19.0216 31.653 21.2783C31.653 23.0148 29.059 26.9406 27.5592 29.0033Z" fill="#A4A7E2" fill-opacity="0.4"/>
<path d="M27.5592 19.9142C26.8069 19.9142 26.1946 20.5263 26.1946 21.2783C26.1946 22.0302 26.8069 22.6423 27.5592 22.6423C28.3114 22.6423 28.9238 22.0303 28.9238 21.2783C28.9238 20.5262 28.3114 19.9142 27.5592 19.9142ZM27.5598 21.2783C27.5598 21.2783 27.5592 21.2776 27.5592 21.2769L28.2414 21.2783H27.5598Z" fill="#A4A7E2" fill-opacity="0.4"/>
</g>
<path d="M40.7718 15.6641H47.6318V25.0021H46.5958V16.6441H41.8078V25.0021H40.7718V15.6641ZM50.7973 24.1901V28.2221H49.7893V19.1921H50.7973V20.0041C51.3106 19.3694 51.9733 19.0521 52.7853 19.0521C53.6533 19.0521 54.3393 19.3601 54.8433 19.9761C55.3566 20.5827 55.6133 21.3014 55.6133 22.1321C55.6133 22.9721 55.3613 23.6907 54.8573 24.2881C54.3533 24.8761 53.6766 25.1701 52.8273 25.1701C51.978 25.1701 51.3013 24.8434 50.7973 24.1901ZM52.6873 24.2741C53.2566 24.2741 53.714 24.0687 54.0593 23.6581C54.4046 23.2381 54.5773 22.7294 54.5773 22.1321C54.5773 21.4601 54.386 20.9281 54.0033 20.5361C53.6206 20.1441 53.1773 19.9481 52.6733 19.9481C52.1693 19.9481 51.7213 20.1441 51.3293 20.5361C50.9373 20.9281 50.7413 21.4554 50.7413 22.1181C50.7413 22.7247 50.9186 23.2381 51.2733 23.6581C51.6373 24.0687 52.1086 24.2741 52.6873 24.2741ZM57.1585 19.1921H58.1665V23.0281L62.1425 18.7441V25.0021H61.1345V21.1241L57.1585 25.4081V19.1921ZM64.0491 19.1921H66.2471C66.7791 19.1921 67.1851 19.3041 67.4651 19.5281C67.8011 19.7987 67.9691 20.1627 67.9691 20.6201C67.9691 21.1241 67.7591 21.5114 67.3391 21.7821C67.6284 21.8567 67.8711 21.9874 68.0671 22.1741C68.3751 22.4727 68.5291 22.8461 68.5291 23.2941C68.5291 23.8541 68.3284 24.2927 67.9271 24.6101C67.5817 24.8714 67.1244 25.0021 66.5551 25.0021H64.0491V19.1921ZM65.0571 21.5581H66.1211C66.3917 21.5581 66.6064 21.5021 66.7651 21.3901C66.9517 21.2501 67.0451 21.0494 67.0451 20.7881C67.0451 20.5547 66.9517 20.3681 66.7651 20.2281C66.6251 20.1347 66.3544 20.0881 65.9531 20.0881H65.0571V21.5581ZM65.0571 24.1061H66.3031C66.7324 24.1061 67.0357 24.0407 67.2131 23.9101C67.4371 23.7421 67.5491 23.5274 67.5491 23.2661C67.5491 22.9861 67.4511 22.7667 67.2551 22.6081C67.0777 22.4681 66.7744 22.3981 66.3451 22.3981H65.0571V24.1061ZM74.9787 24.3021C74.4 24.8807 73.6674 25.1701 72.7807 25.1701C71.894 25.1701 71.1567 24.8807 70.5687 24.3021C69.99 23.7234 69.7007 22.9954 69.7007 22.1181C69.7007 21.2314 69.99 20.4987 70.5687 19.9201C71.1567 19.3414 71.894 19.0521 72.7807 19.0521C73.6674 19.0521 74.4 19.3414 74.9787 19.9201C75.5667 20.4987 75.8607 21.2314 75.8607 22.1181C75.8607 22.9954 75.5667 23.7234 74.9787 24.3021ZM74.2227 20.5221C73.8307 20.1394 73.35 19.9481 72.7807 19.9481C72.2114 19.9481 71.726 20.1441 71.3247 20.5361C70.9327 20.9187 70.7367 21.4461 70.7367 22.1181C70.7367 22.7901 70.9374 23.3174 71.3387 23.7001C71.74 24.0827 72.2207 24.2741 72.7807 24.2741C73.3407 24.2741 73.8214 24.0827 74.2227 23.7001C74.624 23.3174 74.8247 22.7901 74.8247 22.1181C74.8247 21.4367 74.624 20.9047 74.2227 20.5221ZM81.8025 19.1921V25.0021H80.7945V20.1161H78.7225V22.7341C78.7225 23.4901 78.5732 24.0501 78.2745 24.4141C77.9385 24.8247 77.4718 25.0301 76.8745 25.0301C76.7998 25.0301 76.6972 25.0207 76.5665 25.0021V24.0781C76.6598 24.0967 76.7345 24.1061 76.7905 24.1061C77.1172 24.1061 77.3598 23.9801 77.5185 23.7281C77.6492 23.5227 77.7145 23.1914 77.7145 22.7341V19.1921H81.8025ZM86.4252 19.1921H87.4332V21.5721L89.6172 19.1921H90.7932L88.2732 21.8801L91.0452 25.0021H89.7852L87.6292 22.5521L87.4332 22.7481V25.0021H86.4252V22.7481L86.2292 22.5521L84.0732 25.0021H82.8132L85.5852 21.8801L83.0652 19.1921H84.2412L86.4252 21.5721V19.1921ZM96.4624 19.6121V20.8161C96.005 20.2374 95.3984 19.9481 94.6424 19.9481C94.073 19.9481 93.5877 20.1441 93.1864 20.5361C92.785 20.9187 92.5844 21.4461 92.5844 22.1181C92.5844 22.7901 92.785 23.3174 93.1864 23.7001C93.5877 24.0827 94.0684 24.2741 94.6284 24.2741C95.375 24.2741 96.0004 23.9707 96.5044 23.3641V24.5681C95.9537 24.9694 95.3377 25.1701 94.6564 25.1701C93.751 25.1701 93.0044 24.8854 92.4164 24.3161C91.8377 23.7374 91.5484 23.0094 91.5484 22.1321C91.5484 21.2454 91.8424 20.5127 92.4304 19.9341C93.0184 19.3461 93.7604 19.0521 94.6564 19.0521C95.3284 19.0521 95.9304 19.2387 96.4624 19.6121ZM98.051 19.1921H99.059V21.5721L101.411 19.1921H102.643L100.123 21.7821L102.951 25.0021H101.635L99.367 22.4541L99.059 22.7481V25.0021H98.051V19.1921ZM103.957 19.1921H104.965V23.0281L108.941 18.7441V25.0021H107.933V21.1241L103.957 25.4081V19.1921ZM110.848 19.1921H111.856V23.0281L115.832 18.7441V25.0021H114.824V21.1241L110.848 25.4081V19.1921ZM111.352 16.6861L112.192 16.3641C112.36 16.9241 112.757 17.2041 113.382 17.2041C114.007 17.2041 114.404 16.9241 114.572 16.3641L115.412 16.6861C115.263 17.1061 115.006 17.4374 114.642 17.6801C114.287 17.9227 113.867 18.0441 113.382 18.0441C112.897 18.0441 112.472 17.9227 112.108 17.6801C111.753 17.4374 111.501 17.1061 111.352 16.6861ZM43.6138 46.2221V43.1001C42.5964 43.1001 41.7798 42.8481 41.1638 42.3441C40.4918 41.8027 40.1558 41.0514 40.1558 40.0901C40.1558 39.1381 40.4871 38.3914 41.1498 37.8501C41.7471 37.3461 42.5684 37.0941 43.6138 37.0941V33.6641H44.6218V37.0941C45.6671 37.0941 46.4884 37.3461 47.0858 37.8501C47.7484 38.3914 48.0798 39.1381 48.0798 40.0901C48.0798 41.0514 47.7438 41.8027 47.0718 42.3441C46.4558 42.8481 45.6391 43.1001 44.6218 43.1001V46.2221H43.6138ZM43.6138 42.2041V37.9901C42.9511 37.9901 42.4331 38.1114 42.0598 38.3541C41.4811 38.7181 41.1918 39.2967 41.1918 40.0901C41.1918 40.8367 41.4624 41.4014 42.0038 41.7841C42.3958 42.0641 42.9324 42.2041 43.6138 42.2041ZM44.6218 37.9901V42.2041C45.3031 42.2041 45.8398 42.0641 46.2318 41.7841C46.7731 41.4014 47.0438 40.8367 47.0438 40.0901C47.0438 39.2967 46.7544 38.7181 46.1758 38.3541C45.8024 38.1114 45.2844 37.9901 44.6218 37.9901ZM53.9372 41.0561L54.7772 41.5181C54.5812 41.8914 54.3432 42.2041 54.0632 42.4561C53.5312 42.9321 52.8872 43.1701 52.1312 43.1701C51.3472 43.1701 50.6706 42.9181 50.1012 42.4141C49.5412 41.9007 49.2612 41.1401 49.2612 40.1321C49.2612 39.2454 49.5132 38.5127 50.0172 37.9341C50.5306 37.3461 51.2166 37.0521 52.0752 37.0521C53.0459 37.0521 53.7786 37.4067 54.2732 38.1161C54.6652 38.6761 54.8472 39.4041 54.8192 40.3001H50.2972C50.3066 40.8881 50.4886 41.3641 50.8432 41.7281C51.1979 42.0921 51.6319 42.2741 52.1452 42.2741C52.6026 42.2741 52.9992 42.1341 53.3352 41.8541C53.5966 41.6301 53.7972 41.3641 53.9372 41.0561ZM50.3672 39.4601H53.7832C53.6992 39.0027 53.4986 38.6387 53.1812 38.3681C52.8732 38.0881 52.5046 37.9481 52.0752 37.9481C51.6552 37.9481 51.2819 38.0927 50.9552 38.3821C50.6379 38.6621 50.4419 39.0214 50.3672 39.4601ZM56.7855 37.1921H60.8735V42.0781H61.7415V44.5421H60.8175V43.0021H56.3935V44.5421H55.4695V42.0781C55.9548 42.0687 56.3141 41.8167 56.5475 41.3221C56.7061 40.9954 56.7855 40.4821 56.7855 39.7821V37.1921ZM59.8655 42.0781V38.1161H57.7935V40.3001C57.7935 41.0747 57.5601 41.6674 57.0935 42.0781H59.8655ZM67.1169 41.0561L67.9569 41.5181C67.7609 41.8914 67.5229 42.2041 67.2429 42.4561C66.7109 42.9321 66.0669 43.1701 65.3109 43.1701C64.5269 43.1701 63.8503 42.9181 63.2809 42.4141C62.7209 41.9007 62.4409 41.1401 62.4409 40.1321C62.4409 39.2454 62.6929 38.5127 63.1969 37.9341C63.7103 37.3461 64.3963 37.0521 65.2549 37.0521C66.2256 37.0521 66.9583 37.4067 67.4529 38.1161C67.8449 38.6761 68.0269 39.4041 67.9989 40.3001H63.4769C63.4863 40.8881 63.6683 41.3641 64.0229 41.7281C64.3776 42.0921 64.8116 42.2741 65.3249 42.2741C65.7823 42.2741 66.1789 42.1341 66.5149 41.8541C66.7763 41.6301 66.9769 41.3641 67.1169 41.0561ZM63.5469 39.4601H66.9629C66.8789 39.0027 66.6783 38.6387 66.3609 38.3681C66.0529 38.0881 65.6843 37.9481 65.2549 37.9481C64.8349 37.9481 64.4616 38.0927 64.1349 38.3821C63.8176 38.6621 63.6216 39.0214 63.5469 39.4601ZM70.5532 42.1901V46.2221H69.5452V37.1921H70.5532V38.0041C71.0665 37.3694 71.7292 37.0521 72.5412 37.0521C73.4092 37.0521 74.0952 37.3601 74.5992 37.9761C75.1125 38.5827 75.3692 39.3014 75.3692 40.1321C75.3692 40.9721 75.1172 41.6907 74.6132 42.2881C74.1092 42.8761 73.4325 43.1701 72.5832 43.1701C71.7338 43.1701 71.0572 42.8434 70.5532 42.1901ZM72.4432 42.2741C73.0125 42.2741 73.4698 42.0687 73.8152 41.6581C74.1605 41.2381 74.3332 40.7294 74.3332 40.1321C74.3332 39.4601 74.1418 38.9281 73.7592 38.5361C73.3765 38.1441 72.9332 37.9481 72.4292 37.9481C71.9252 37.9481 71.4772 38.1441 71.0852 38.5361C70.6932 38.9281 70.4972 39.4554 70.4972 40.1181C70.4972 40.7247 70.6745 41.2381 71.0292 41.6581C71.3932 42.0687 71.8645 42.2741 72.4432 42.2741ZM81.3663 38.0181V37.1921H82.3743V43.0021H81.3663V42.1901C80.8623 42.8434 80.1996 43.1701 79.3783 43.1701C78.5943 43.1701 77.927 42.8994 77.3763 42.3581C76.8256 41.8167 76.5503 41.0607 76.5503 40.0901C76.5503 39.1381 76.821 38.3961 77.3623 37.8641C77.913 37.3227 78.585 37.0521 79.3783 37.0521C80.2183 37.0521 80.881 37.3741 81.3663 38.0181ZM79.4903 37.9481C78.9583 37.9481 78.5056 38.1394 78.1323 38.5221C77.7683 38.8954 77.5863 39.4181 77.5863 40.0901C77.5863 40.7341 77.7543 41.2614 78.0903 41.6721C78.4356 42.0734 78.9023 42.2741 79.4903 42.2741C80.0783 42.2741 80.545 42.0641 80.8903 41.6441C81.245 41.2241 81.4223 40.7107 81.4223 40.1041C81.4223 39.4134 81.2263 38.8814 80.8343 38.5081C80.4423 38.1347 79.9943 37.9481 79.4903 37.9481ZM88.6795 37.1921V43.0021H87.6715V38.1161H85.5995V40.7341C85.5995 41.4901 85.4501 42.0501 85.1515 42.4141C84.8155 42.8247 84.3488 43.0301 83.7515 43.0301C83.6768 43.0301 83.5741 43.0207 83.4435 43.0021V42.0781C83.5368 42.0967 83.6115 42.1061 83.6675 42.1061C83.9941 42.1061 84.2368 41.9801 84.3955 41.7281C84.5261 41.5227 84.5915 41.1914 84.5915 40.7341V37.1921H88.6795ZM90.5862 43.0021V37.1921H91.5942V39.4181H92.6302C93.4329 39.4181 94.0209 39.6094 94.3942 39.9921C94.6929 40.2907 94.8422 40.6967 94.8422 41.2101C94.8422 41.7514 94.6695 42.1854 94.3242 42.5121C93.9789 42.8387 93.4095 43.0021 92.6162 43.0021H90.5862ZM91.5942 42.1061H92.5322C92.9522 42.1061 93.2509 42.0547 93.4282 41.9521C93.6802 41.7841 93.8062 41.5367 93.8062 41.2101C93.8062 40.8741 93.6849 40.6314 93.4422 40.4821C93.2742 40.3701 92.9755 40.3141 92.5462 40.3141H91.5942V42.1061ZM96.1917 43.0021V37.1921H97.1997V39.5721H99.9437V37.1921H100.952V43.0021H99.9437V40.4961H97.1997V43.0021H96.1917ZM102.85 43.0021V37.1921H103.858V39.4181H104.894C105.697 39.4181 106.285 39.6094 106.658 39.9921C106.957 40.2907 107.106 40.6967 107.106 41.2101C107.106 41.7514 106.933 42.1854 106.588 42.5121C106.243 42.8387 105.673 43.0021 104.88 43.0021H102.85ZM103.858 42.1061H104.796C105.216 42.1061 105.515 42.0547 105.692 41.9521C105.944 41.7841 106.07 41.5367 106.07 41.2101C106.07 40.8741 105.949 40.6314 105.706 40.4821C105.538 40.3701 105.239 40.3141 104.81 40.3141H103.858V42.1061ZM107.806 43.0021V37.1921H108.814V43.0021H107.806ZM110.711 37.1921H111.719V41.0281L115.695 36.7441V43.0021H114.687V39.1241L110.711 43.4081V37.1921ZM111.215 34.6861L112.055 34.3641C112.223 34.9241 112.62 35.2041 113.245 35.2041C113.871 35.2041 114.267 34.9241 114.435 34.3641L115.275 34.6861C115.126 35.1061 114.869 35.4374 114.505 35.6801C114.151 35.9227 113.731 36.0441 113.245 36.0441C112.76 36.0441 112.335 35.9227 111.971 35.6801C111.617 35.4374 111.365 35.1061 111.215 34.6861ZM125.783 42.3021C125.205 42.8807 124.472 43.1701 123.585 43.1701C122.699 43.1701 121.961 42.8807 121.373 42.3021C120.795 41.7234 120.505 40.9954 120.505 40.1181C120.505 39.2314 120.795 38.4987 121.373 37.9201C121.961 37.3414 122.699 37.0521 123.585 37.0521C124.472 37.0521 125.205 37.3414 125.783 37.9201C126.371 38.4987 126.665 39.2314 126.665 40.1181C126.665 40.9954 126.371 41.7234 125.783 42.3021ZM125.027 38.5221C124.635 38.1394 124.155 37.9481 123.585 37.9481C123.016 37.9481 122.531 38.1441 122.129 38.5361C121.737 38.9187 121.541 39.4461 121.541 40.1181C121.541 40.7901 121.742 41.3174 122.143 41.7001C122.545 42.0827 123.025 42.2741 123.585 42.2741C124.145 42.2741 124.626 42.0827 125.027 41.7001C125.429 41.3174 125.629 40.7901 125.629 40.1181C125.629 39.4367 125.429 38.9047 125.027 38.5221ZM128.211 37.1921H129.219V39.5721L131.571 37.1921H132.803L130.283 39.7821L133.111 43.0021H131.795L129.527 40.4541L129.219 40.7481V43.0021H128.211V37.1921ZM135.125 42.1901V46.2221H134.117V37.1921H135.125V38.0041C135.639 37.3694 136.301 37.0521 137.113 37.0521C137.981 37.0521 138.667 37.3601 139.171 37.9761C139.685 38.5827 139.941 39.3014 139.941 40.1321C139.941 40.9721 139.689 41.6907 139.185 42.2881C138.681 42.8761 138.005 43.1701 137.155 43.1701C136.306 43.1701 135.629 42.8434 135.125 42.1901ZM137.015 42.2741C137.585 42.2741 138.042 42.0687 138.387 41.6581C138.733 41.2381 138.905 40.7294 138.905 40.1321C138.905 39.4601 138.714 38.9281 138.331 38.5361C137.949 38.1441 137.505 37.9481 137.001 37.9481C136.497 37.9481 136.049 38.1441 135.657 38.5361C135.265 38.9281 135.069 39.4554 135.069 40.1181C135.069 40.7247 135.247 41.2381 135.601 41.6581C135.965 42.0687 136.437 42.2741 137.015 42.2741ZM141.473 46.2221L143.321 42.4561L140.647 37.1921H141.795L143.853 41.3501L145.743 37.1921H146.863L142.593 46.2221H141.473ZM147.926 43.0021V37.1921H151.37V38.1161H148.934V43.0021H147.926Z" fill="#D7DCE7" fill-opacity="0.4"/>
<defs>
<clipPath id="clip0_2_423">
<rect width="32.7508" height="32.7384" fill="white" transform="translate(0.266785 0.816803)"/>
</clipPath>
</defs>
</svg>
