<svg width="187" height="44" viewBox="0 0 187 44" fill="none" xmlns="http://www.w3.org/2000/svg">
<g opacity="0.7">
<g clip-path="url(#clip0_2_407)">
<path d="M30.2723 16.2658V6.64007C30.2723 6.33571 30.0704 6.06792 29.7772 5.98403L20.2249 3.25581C20.1006 3.22083 19.9713 3.22134 19.8504 3.25581L10.4854 5.93057L1.12029 3.25581C0.915088 3.19788 0.692485 3.23848 0.52195 3.36707C0.351352 3.49629 0.250732 3.6981 0.250732 3.91192V24.3734C0.250732 24.6778 0.452611 24.9455 0.745833 25.0294L10.2981 27.7577C10.3594 27.775 10.4227 27.7836 10.4854 27.7836C10.5488 27.7836 10.6118 27.775 10.6726 27.7577L20.0377 25.0829L24.2911 26.2976C25.476 28.2317 26.7453 29.9103 27.0014 30.2447C27.1307 30.4132 27.3305 30.5118 27.5431 30.5118C27.7557 30.5118 27.9556 30.4132 28.0848 30.2447C28.5879 29.588 33.0016 23.7506 33.0016 20.9631C33.0016 18.9527 31.8959 17.2124 30.2723 16.2658ZM9.80303 26.1971L1.61533 23.8592V4.81644L9.80303 7.15436V26.1971ZM19.3554 23.8587L11.1677 26.1972V7.15481L19.3554 4.81631V23.8587ZM20.72 23.8592V4.81644L28.9077 7.15436V15.7005C28.469 15.5865 28.017 15.5068 27.5431 15.5068C24.5334 15.5068 22.0847 17.9546 22.0847 20.9632C22.0847 21.9256 22.6153 23.252 23.3249 24.6028L20.72 23.8592ZM27.5431 28.6881C26.0432 26.6254 23.4493 22.6996 23.4493 20.9631C23.4493 18.7065 25.2856 16.8708 27.5431 16.8708C29.8006 16.8708 31.637 18.7065 31.637 20.9631C31.637 22.6996 29.043 26.6254 27.5431 28.6881Z" fill="#A4A7E2" fill-opacity="0.4"/>
<path d="M27.5431 19.599C26.7909 19.599 26.1785 20.2111 26.1785 20.9631C26.1785 21.715 26.7909 22.3272 27.5431 22.3272C28.2953 22.3272 28.9077 21.7151 28.9077 20.9631C28.9077 20.2111 28.2953 19.599 27.5431 19.599ZM27.5437 20.9631C27.5437 20.9631 27.5431 20.9624 27.5431 20.9617L28.2254 20.9631H27.5437Z" fill="#A4A7E2" fill-opacity="0.4"/>
</g>
<path d="M37.5649 12.6207H43.2489V20.9787H44.3129V23.9187H43.3329V21.9587H36.7249V23.9187H35.7449V20.9787C36.0623 20.9881 36.3516 20.8761 36.6129 20.6427C36.8743 20.4001 37.0796 20.0921 37.2289 19.7187C37.4529 19.1494 37.5649 18.3327 37.5649 17.2687V12.6207ZM38.6009 13.6007V17.2687C38.6009 18.4167 38.4889 19.2847 38.2649 19.8727C38.1063 20.2927 37.8683 20.6614 37.5509 20.9787H42.2129V13.6007H38.6009ZM49.908 16.9747V16.1487H50.916V21.9587H49.908V21.1467C49.404 21.8001 48.7413 22.1267 47.92 22.1267C47.136 22.1267 46.4687 21.8561 45.918 21.3147C45.3673 20.7734 45.092 20.0174 45.092 19.0467C45.092 18.0947 45.3627 17.3527 45.904 16.8207C46.4547 16.2794 47.1267 16.0087 47.92 16.0087C48.76 16.0087 49.4227 16.3307 49.908 16.9747ZM48.032 16.9047C47.5 16.9047 47.0473 17.0961 46.674 17.4787C46.31 17.8521 46.128 18.3747 46.128 19.0467C46.128 19.6907 46.296 20.2181 46.632 20.6287C46.9773 21.0301 47.444 21.2307 48.032 21.2307C48.62 21.2307 49.0867 21.0207 49.432 20.6007C49.7867 20.1807 49.964 19.6674 49.964 19.0607C49.964 18.3701 49.768 17.8381 49.376 17.4647C48.984 17.0914 48.536 16.9047 48.032 16.9047ZM57.2212 16.1487V21.9587H56.2131V17.0727H54.1411V19.6907C54.1411 20.4467 53.9918 21.0067 53.6932 21.3707C53.3571 21.7814 52.8905 21.9867 52.2931 21.9867C52.2185 21.9867 52.1158 21.9774 51.9851 21.9587V21.0347C52.0785 21.0534 52.1531 21.0627 52.2091 21.0627C52.5358 21.0627 52.7785 20.9367 52.9371 20.6847C53.0678 20.4794 53.1331 20.1481 53.1331 19.6907V16.1487H57.2212ZM59.1279 21.9587V16.1487H60.1359V18.3747H61.1719C61.9746 18.3747 62.5626 18.5661 62.9359 18.9487C63.2346 19.2474 63.3839 19.6534 63.3839 20.1667C63.3839 20.7081 63.2112 21.1421 62.8659 21.4687C62.5206 21.7954 61.9512 21.9587 61.1579 21.9587H59.1279ZM60.1359 21.0627H61.0739C61.4939 21.0627 61.7926 21.0114 61.9699 20.9087C62.2219 20.7407 62.3479 20.4934 62.3479 20.1667C62.3479 19.8307 62.2266 19.5881 61.9839 19.4387C61.8159 19.3267 61.5172 19.2707 61.0879 19.2707H60.1359V21.0627ZM64.7334 21.9587V16.1487H65.7414V18.5287H68.4854V16.1487H69.4934V21.9587H68.4854V19.4527H65.7414V21.9587H64.7334ZM75.7036 20.0127L76.5436 20.4747C76.3476 20.8481 76.1096 21.1607 75.8296 21.4127C75.2976 21.8887 74.6536 22.1267 73.8976 22.1267C73.1136 22.1267 72.4369 21.8747 71.8676 21.3707C71.3076 20.8574 71.0276 20.0967 71.0276 19.0887C71.0276 18.2021 71.2796 17.4694 71.7836 16.8907C72.2969 16.3027 72.9829 16.0087 73.8416 16.0087C74.8122 16.0087 75.5449 16.3634 76.0396 17.0727C76.4316 17.6327 76.6136 18.3607 76.5856 19.2567H72.0636C72.0729 19.8447 72.2549 20.3207 72.6096 20.6847C72.9642 21.0487 73.3982 21.2307 73.9116 21.2307C74.3689 21.2307 74.7656 21.0907 75.1016 20.8107C75.3629 20.5867 75.5636 20.3207 75.7036 20.0127ZM72.1336 18.4167H75.5496C75.4656 17.9594 75.2649 17.5954 74.9476 17.3247C74.6396 17.0447 74.2709 16.9047 73.8416 16.9047C73.4216 16.9047 73.0482 17.0494 72.7216 17.3387C72.4042 17.6187 72.2082 17.9781 72.1336 18.4167ZM78.1318 16.1487H80.3298C80.8618 16.1487 81.2678 16.2607 81.5478 16.4847C81.8838 16.7554 82.0518 17.1194 82.0518 17.5767C82.0518 18.0807 81.8418 18.4681 81.4218 18.7387C81.7111 18.8134 81.9538 18.9441 82.1498 19.1307C82.4578 19.4294 82.6118 19.8027 82.6118 20.2507C82.6118 20.8107 82.4111 21.2494 82.0098 21.5667C81.6645 21.8281 81.2071 21.9587 80.6378 21.9587H78.1318V16.1487ZM79.1398 18.5147H80.2038C80.4745 18.5147 80.6891 18.4587 80.8478 18.3467C81.0345 18.2067 81.1278 18.0061 81.1278 17.7447C81.1278 17.5114 81.0345 17.3247 80.8478 17.1847C80.7078 17.0914 80.4371 17.0447 80.0358 17.0447H79.1398V18.5147ZM79.1398 21.0627H80.3858C80.8151 21.0627 81.1185 20.9974 81.2958 20.8667C81.5198 20.6987 81.6318 20.4841 81.6318 20.2227C81.6318 19.9427 81.5338 19.7234 81.3378 19.5647C81.1605 19.4247 80.8571 19.3547 80.4278 19.3547H79.1398V21.0627ZM89.0614 21.2587C88.4827 21.8374 87.7501 22.1267 86.8634 22.1267C85.9767 22.1267 85.2394 21.8374 84.6514 21.2587C84.0727 20.6801 83.7834 19.9521 83.7834 19.0747C83.7834 18.1881 84.0727 17.4554 84.6514 16.8767C85.2394 16.2981 85.9767 16.0087 86.8634 16.0087C87.7501 16.0087 88.4827 16.2981 89.0614 16.8767C89.6494 17.4554 89.9434 18.1881 89.9434 19.0747C89.9434 19.9521 89.6494 20.6801 89.0614 21.2587ZM88.3054 17.4787C87.9134 17.0961 87.4327 16.9047 86.8634 16.9047C86.2941 16.9047 85.8087 17.1007 85.4074 17.4927C85.0154 17.8754 84.8194 18.4027 84.8194 19.0747C84.8194 19.7467 85.0201 20.2741 85.4214 20.6567C85.8227 21.0394 86.3034 21.2307 86.8634 21.2307C87.4234 21.2307 87.9041 21.0394 88.3054 20.6567C88.7067 20.2741 88.9074 19.7467 88.9074 19.0747C88.9074 18.3934 88.7067 17.8614 88.3054 17.4787ZM96.0392 16.5687V17.7727C95.5819 17.1941 94.9752 16.9047 94.2192 16.9047C93.6499 16.9047 93.1645 17.1007 92.7632 17.4927C92.3619 17.8754 92.1612 18.4027 92.1612 19.0747C92.1612 19.7467 92.3619 20.2741 92.7632 20.6567C93.1645 21.0394 93.6452 21.2307 94.2052 21.2307C94.9519 21.2307 95.5772 20.9274 96.0812 20.3207V21.5247C95.5305 21.9261 94.9145 22.1267 94.2332 22.1267C93.3279 22.1267 92.5812 21.8421 91.9932 21.2727C91.4145 20.6941 91.1252 19.9661 91.1252 19.0887C91.1252 18.2021 91.4192 17.4694 92.0072 16.8907C92.5952 16.3027 93.3372 16.0087 94.2332 16.0087C94.9052 16.0087 95.5072 16.1954 96.0392 16.5687ZM101.436 17.0727H99.6159V21.9587H98.6079V17.0727H96.7879V16.1487H101.436V17.0727ZM107.272 21.2587C106.694 21.8374 105.961 22.1267 105.074 22.1267C104.188 22.1267 103.45 21.8374 102.862 21.2587C102.284 20.6801 101.994 19.9521 101.994 19.0747C101.994 18.1881 102.284 17.4554 102.862 16.8767C103.45 16.2981 104.188 16.0087 105.074 16.0087C105.961 16.0087 106.694 16.2981 107.272 16.8767C107.86 17.4554 108.154 18.1881 108.154 19.0747C108.154 19.9521 107.86 20.6801 107.272 21.2587ZM106.516 17.4787C106.124 17.0961 105.644 16.9047 105.074 16.9047C104.505 16.9047 104.02 17.1007 103.618 17.4927C103.226 17.8754 103.03 18.4027 103.03 19.0747C103.03 19.7467 103.231 20.2741 103.632 20.6567C104.034 21.0394 104.514 21.2307 105.074 21.2307C105.634 21.2307 106.115 21.0394 106.516 20.6567C106.918 20.2741 107.118 19.7467 107.118 19.0747C107.118 18.3934 106.918 17.8614 106.516 17.4787ZM112.808 21.9587V19.6767C112.257 19.7607 111.8 19.8027 111.436 19.8027C110.801 19.8027 110.33 19.6627 110.022 19.3827C109.695 19.0934 109.532 18.6174 109.532 17.9547V16.1487H110.54V17.8147C110.54 18.1321 110.582 18.3607 110.666 18.5007C110.797 18.7527 111.091 18.8787 111.548 18.8787C111.959 18.8787 112.379 18.8367 112.808 18.7527V16.1487H113.816V21.9587H112.808ZM115.716 21.9587V16.1487H116.724V18.5287H119.468V16.1487H120.476V21.9587H119.468V19.4527H116.724V21.9587H115.716ZM122.374 21.9587V16.1487H123.382V18.3747H124.418C125.221 18.3747 125.809 18.5661 126.182 18.9487C126.481 19.2474 126.63 19.6534 126.63 20.1667C126.63 20.7081 126.457 21.1421 126.112 21.4687C125.767 21.7954 125.197 21.9587 124.404 21.9587H122.374ZM123.382 21.0627H124.32C124.74 21.0627 125.039 21.0114 125.216 20.9087C125.468 20.7407 125.594 20.4934 125.594 20.1667C125.594 19.8307 125.473 19.5881 125.23 19.4387C125.062 19.3267 124.763 19.2707 124.334 19.2707H123.382V21.0627ZM127.33 21.9587V16.1487H128.338V21.9587H127.33ZM130.235 16.1487H131.243V19.9847L135.219 15.7007V21.9587H134.211V18.0807L130.235 22.3647V16.1487ZM130.739 13.6427L131.579 13.3207C131.747 13.8807 132.144 14.1607 132.769 14.1607C133.395 14.1607 133.791 13.8807 133.959 13.3207L134.799 13.6427C134.65 14.0627 134.393 14.3941 134.029 14.6367C133.675 14.8794 133.255 15.0007 132.769 15.0007C132.284 15.0007 131.859 14.8794 131.495 14.6367C131.141 14.3941 130.889 14.0627 130.739 13.6427ZM39.5949 43.1787V40.0567C38.5776 40.0567 37.7609 39.8047 37.1449 39.3007C36.4729 38.7594 36.1369 38.0081 36.1369 37.0467C36.1369 36.0947 36.4683 35.3481 37.1309 34.8067C37.7283 34.3027 38.5496 34.0507 39.5949 34.0507V30.6207H40.6029V34.0507C41.6483 34.0507 42.4696 34.3027 43.0669 34.8067C43.7296 35.3481 44.0609 36.0947 44.0609 37.0467C44.0609 38.0081 43.7249 38.7594 43.0529 39.3007C42.4369 39.8047 41.6203 40.0567 40.6029 40.0567V43.1787H39.5949ZM39.5949 39.1607V34.9467C38.9323 34.9467 38.4143 35.0681 38.0409 35.3107C37.4623 35.6747 37.1729 36.2534 37.1729 37.0467C37.1729 37.7934 37.4436 38.3581 37.9849 38.7407C38.3769 39.0207 38.9136 39.1607 39.5949 39.1607ZM40.6029 34.9467V39.1607C41.2843 39.1607 41.8209 39.0207 42.2129 38.7407C42.7543 38.3581 43.0249 37.7934 43.0249 37.0467C43.0249 36.2534 42.7356 35.6747 42.1569 35.3107C41.7836 35.0681 41.2656 34.9467 40.6029 34.9467ZM49.9184 38.0127L50.7584 38.4747C50.5624 38.8481 50.3244 39.1607 50.0444 39.4127C49.5124 39.8887 48.8684 40.1267 48.1124 40.1267C47.3284 40.1267 46.6517 39.8747 46.0824 39.3707C45.5224 38.8574 45.2424 38.0967 45.2424 37.0887C45.2424 36.2021 45.4944 35.4694 45.9984 34.8907C46.5117 34.3027 47.1977 34.0087 48.0564 34.0087C49.0271 34.0087 49.7597 34.3634 50.2544 35.0727C50.6464 35.6327 50.8284 36.3607 50.8004 37.2567H46.2784C46.2877 37.8447 46.4697 38.3207 46.8244 38.6847C47.1791 39.0487 47.6131 39.2307 48.1264 39.2307C48.5837 39.2307 48.9804 39.0907 49.3164 38.8107C49.5777 38.5867 49.7784 38.3207 49.9184 38.0127ZM46.3484 36.4167H49.7644C49.6804 35.9594 49.4797 35.5954 49.1624 35.3247C48.8544 35.0447 48.4857 34.9047 48.0564 34.9047C47.6364 34.9047 47.2631 35.0494 46.9364 35.3387C46.6191 35.6187 46.4231 35.9781 46.3484 36.4167ZM52.7666 34.1487H56.8546V39.0347H57.7226V41.4987H56.7986V39.9587H52.3746V41.4987H51.4506V39.0347C51.936 39.0254 52.2953 38.7734 52.5286 38.2787C52.6873 37.9521 52.7666 37.4387 52.7666 36.7387V34.1487ZM55.8466 39.0347V35.0727H53.7746V37.2567C53.7746 38.0314 53.5413 38.6241 53.0746 39.0347H55.8466ZM63.0981 38.0127L63.9381 38.4747C63.7421 38.8481 63.5041 39.1607 63.2241 39.4127C62.6921 39.8887 62.0481 40.1267 61.2921 40.1267C60.5081 40.1267 59.8314 39.8747 59.2621 39.3707C58.7021 38.8574 58.4221 38.0967 58.4221 37.0887C58.4221 36.2021 58.6741 35.4694 59.1781 34.8907C59.6914 34.3027 60.3774 34.0087 61.2361 34.0087C62.2068 34.0087 62.9394 34.3634 63.4341 35.0727C63.8261 35.6327 64.0081 36.3607 63.9801 37.2567H59.4581C59.4674 37.8447 59.6494 38.3207 60.0041 38.6847C60.3588 39.0487 60.7928 39.2307 61.3061 39.2307C61.7634 39.2307 62.1601 39.0907 62.4961 38.8107C62.7574 38.5867 62.9581 38.3207 63.0981 38.0127ZM59.5281 36.4167H62.9441C62.8601 35.9594 62.6594 35.5954 62.3421 35.3247C62.0341 35.0447 61.6654 34.9047 61.2361 34.9047C60.8161 34.9047 60.4428 35.0494 60.1161 35.3387C59.7988 35.6187 59.6028 35.9781 59.5281 36.4167ZM66.5343 39.1467V43.1787H65.5263V34.1487H66.5343V34.9607C67.0477 34.3261 67.7103 34.0087 68.5223 34.0087C69.3903 34.0087 70.0763 34.3167 70.5803 34.9327C71.0937 35.5394 71.3503 36.2581 71.3503 37.0887C71.3503 37.9287 71.0983 38.6474 70.5943 39.2447C70.0903 39.8327 69.4137 40.1267 68.5643 40.1267C67.715 40.1267 67.0383 39.8001 66.5343 39.1467ZM68.4243 39.2307C68.9937 39.2307 69.451 39.0254 69.7963 38.6147C70.1417 38.1947 70.3143 37.6861 70.3143 37.0887C70.3143 36.4167 70.123 35.8847 69.7403 35.4927C69.3577 35.1007 68.9143 34.9047 68.4103 34.9047C67.9063 34.9047 67.4583 35.1007 67.0663 35.4927C66.6743 35.8847 66.4783 36.4121 66.4783 37.0747C66.4783 37.6814 66.6557 38.1947 67.0103 38.6147C67.3743 39.0254 67.8457 39.2307 68.4243 39.2307ZM77.3475 34.9747V34.1487H78.3555V39.9587H77.3475V39.1467C76.8435 39.8001 76.1808 40.1267 75.3595 40.1267C74.5755 40.1267 73.9081 39.8561 73.3575 39.3147C72.8068 38.7734 72.5315 38.0174 72.5315 37.0467C72.5315 36.0947 72.8021 35.3527 73.3435 34.8207C73.8941 34.2794 74.5661 34.0087 75.3595 34.0087C76.1995 34.0087 76.8621 34.3307 77.3475 34.9747ZM75.4715 34.9047C74.9395 34.9047 74.4868 35.0961 74.1135 35.4787C73.7495 35.8521 73.5675 36.3747 73.5675 37.0467C73.5675 37.6907 73.7355 38.2181 74.0715 38.6287C74.4168 39.0301 74.8835 39.2307 75.4715 39.2307C76.0595 39.2307 76.5261 39.0207 76.8715 38.6007C77.2261 38.1807 77.4035 37.6674 77.4035 37.0607C77.4035 36.3701 77.2075 35.8381 76.8155 35.4647C76.4235 35.0914 75.9755 34.9047 75.4715 34.9047ZM84.6606 34.1487V39.9587H83.6526V35.0727H81.5806V37.6907C81.5806 38.4467 81.4313 39.0067 81.1326 39.3707C80.7966 39.7814 80.3299 39.9867 79.7326 39.9867C79.6579 39.9867 79.5553 39.9774 79.4246 39.9587V39.0347C79.5179 39.0534 79.5926 39.0627 79.6486 39.0627C79.9753 39.0627 80.2179 38.9367 80.3766 38.6847C80.5073 38.4794 80.5726 38.1481 80.5726 37.6907V34.1487H84.6606ZM86.5673 39.9587V34.1487H87.5753V36.3747H88.6113C89.414 36.3747 90.002 36.5661 90.3753 36.9487C90.674 37.2474 90.8233 37.6534 90.8233 38.1667C90.8233 38.7081 90.6507 39.1421 90.3053 39.4687C89.96 39.7954 89.3907 39.9587 88.5973 39.9587H86.5673ZM87.5753 39.0627H88.5133C88.9333 39.0627 89.232 39.0114 89.4093 38.9087C89.6613 38.7407 89.7873 38.4934 89.7873 38.1667C89.7873 37.8307 89.666 37.5881 89.4233 37.4387C89.2553 37.3267 88.9567 37.2707 88.5273 37.2707H87.5753V39.0627ZM92.1728 39.9587V34.1487H93.1808V36.5287H95.9248V34.1487H96.9328V39.9587H95.9248V37.4527H93.1808V39.9587H92.1728ZM98.831 39.9587V34.1487H99.839V36.3747H100.875C101.678 36.3747 102.266 36.5661 102.639 36.9487C102.938 37.2474 103.087 37.6534 103.087 38.1667C103.087 38.7081 102.914 39.1421 102.569 39.4687C102.224 39.7954 101.654 39.9587 100.861 39.9587H98.831ZM99.839 39.0627H100.777C101.197 39.0627 101.496 39.0114 101.673 38.9087C101.925 38.7407 102.051 38.4934 102.051 38.1667C102.051 37.8307 101.93 37.5881 101.687 37.4387C101.519 37.3267 101.22 37.2707 100.791 37.2707H99.839V39.0627ZM103.787 39.9587V34.1487H104.795V39.9587H103.787ZM106.692 34.1487H107.7V37.9847L111.676 33.7007V39.9587H110.668V36.0807L106.692 40.3647V34.1487ZM107.196 31.6427L108.036 31.3207C108.204 31.8807 108.601 32.1607 109.226 32.1607C109.852 32.1607 110.248 31.8807 110.416 31.3207L111.256 31.6427C111.107 32.0627 110.85 32.3941 110.486 32.6367C110.132 32.8794 109.712 33.0007 109.226 33.0007C108.741 33.0007 108.316 32.8794 107.952 32.6367C107.598 32.3941 107.346 32.0627 107.196 31.6427ZM121.765 39.2587C121.186 39.8374 120.453 40.1267 119.567 40.1267C118.68 40.1267 117.943 39.8374 117.355 39.2587C116.776 38.6801 116.487 37.9521 116.487 37.0747C116.487 36.1881 116.776 35.4554 117.355 34.8767C117.943 34.2981 118.68 34.0087 119.567 34.0087C120.453 34.0087 121.186 34.2981 121.765 34.8767C122.353 35.4554 122.647 36.1881 122.647 37.0747C122.647 37.9521 122.353 38.6801 121.765 39.2587ZM121.009 35.4787C120.617 35.0961 120.136 34.9047 119.567 34.9047C118.997 34.9047 118.512 35.1007 118.111 35.4927C117.719 35.8754 117.523 36.4027 117.523 37.0747C117.523 37.7467 117.723 38.2741 118.125 38.6567C118.526 39.0394 119.007 39.2307 119.567 39.2307C120.127 39.2307 120.607 39.0394 121.009 38.6567C121.41 38.2741 121.611 37.7467 121.611 37.0747C121.611 36.3934 121.41 35.8614 121.009 35.4787ZM124.192 34.1487H125.2V36.5287L127.552 34.1487H128.784L126.264 36.7387L129.092 39.9587H127.776L125.508 37.4107L125.2 37.7047V39.9587H124.192V34.1487ZM131.107 39.1467V43.1787H130.099V34.1487H131.107V34.9607C131.62 34.3261 132.283 34.0087 133.095 34.0087C133.963 34.0087 134.649 34.3167 135.153 34.9327C135.666 35.5394 135.923 36.2581 135.923 37.0887C135.923 37.9287 135.671 38.6474 135.167 39.2447C134.663 39.8327 133.986 40.1267 133.137 40.1267C132.287 40.1267 131.611 39.8001 131.107 39.1467ZM132.997 39.2307C133.566 39.2307 134.023 39.0254 134.369 38.6147C134.714 38.1947 134.887 37.6861 134.887 37.0887C134.887 36.4167 134.695 35.8847 134.313 35.4927C133.93 35.1007 133.487 34.9047 132.983 34.9047C132.479 34.9047 132.031 35.1007 131.639 35.4927C131.247 35.8847 131.051 36.4121 131.051 37.0747C131.051 37.6814 131.228 38.1947 131.583 38.6147C131.947 39.0254 132.418 39.2307 132.997 39.2307ZM137.454 43.1787L139.302 39.4127L136.628 34.1487H137.776L139.834 38.3067L141.724 34.1487H142.844L138.574 43.1787H137.454ZM143.907 39.9587V34.1487H147.351V35.0727H144.915V39.9587H143.907Z" fill="#D7DCE7" fill-opacity="0.4"/>
</g>
<defs>
<clipPath id="clip0_2_407">
<rect width="32.7508" height="32.7384" fill="white" transform="translate(0.250732 0.501617)"/>
</clipPath>
</defs>
</svg>
