<svg width="162" height="47" viewBox="0 0 162 47" fill="none" xmlns="http://www.w3.org/2000/svg">
<g clip-path="url(#clip0_2_415)">
<path d="M30.693 16.4242V6.79845C30.693 6.49409 30.4911 6.2263 30.1979 6.14241L20.6456 3.41419C20.5213 3.37921 20.392 3.37973 20.2711 3.41419L10.906 6.08895L1.54098 3.41419C1.33577 3.35626 1.11317 3.39686 0.942635 3.52545C0.772036 3.65468 0.671417 3.85648 0.671417 4.0703V24.5318C0.671417 24.8361 0.873295 25.1039 1.16652 25.1878L10.7188 27.916C10.7801 27.9334 10.8434 27.942 10.906 27.942C10.9694 27.942 11.0325 27.9334 11.0933 27.916L20.4584 25.2413L24.7117 26.456C25.8967 28.39 27.1659 30.0687 27.4221 30.4031C27.5513 30.5716 27.7512 30.6702 27.9638 30.6702C28.1764 30.6702 28.3762 30.5716 28.5055 30.4031C29.0086 29.7464 33.4222 23.909 33.4222 21.1215C33.4222 19.1111 32.3166 17.3708 30.693 16.4242ZM10.2237 26.3555L2.03601 24.0176V4.97483L10.2237 7.31274V26.3555ZM19.7761 24.017L11.5884 26.3555V7.31319L19.7761 4.9747V24.017ZM21.1407 24.0176V4.97483L29.3284 7.31274V15.8589C28.8896 15.7449 28.4377 15.6652 27.9638 15.6652C24.954 15.6652 22.5053 18.1129 22.5053 21.1216C22.5053 22.0839 23.036 23.4104 23.7456 24.7612L21.1407 24.0176ZM27.9638 28.8465C26.4639 26.7838 23.8699 22.858 23.8699 21.1215C23.8699 18.8648 25.7063 17.0292 27.9638 17.0292C30.2213 17.0292 32.0576 18.8648 32.0576 21.1215C32.0576 22.858 29.4637 26.7838 27.9638 28.8465Z" fill="#A4A7E2" fill-opacity="0.4"/>
<path d="M27.9638 19.7574C27.2116 19.7574 26.5992 20.3695 26.5992 21.1215C26.5992 21.8734 27.2116 22.4855 27.9638 22.4855C28.7161 22.4855 29.3284 21.8735 29.3284 21.1215C29.3284 20.3694 28.7161 19.7574 27.9638 19.7574ZM27.9644 21.1215C27.9644 21.1215 27.9638 21.1208 27.9638 21.1201L28.6461 21.1215H27.9644Z" fill="#A4A7E2" fill-opacity="0.4"/>
</g>
<path d="M48.3164 16.2772V17.5652C47.943 17.1919 47.537 16.9025 47.0984 16.6972C46.5664 16.4545 46.0297 16.3332 45.4884 16.3332C44.415 16.3332 43.519 16.7112 42.8004 17.4672C42.091 18.2139 41.7364 19.1332 41.7364 20.2252C41.7364 21.4012 42.1237 22.3299 42.8984 23.0112C43.6824 23.6925 44.5504 24.0332 45.5024 24.0332C46.0997 24.0332 46.6784 23.8885 47.2384 23.5992C47.6304 23.4032 47.9897 23.1419 48.3164 22.8152V24.1032C47.467 24.7099 46.529 25.0132 45.5024 25.0132C44.121 25.0132 42.9684 24.5512 42.0444 23.6272C41.1297 22.7032 40.6724 21.5645 40.6724 20.2112C40.6724 18.8205 41.1344 17.6632 42.0584 16.7392C42.9917 15.8152 44.1584 15.3532 45.5584 15.3532C46.585 15.3532 47.5044 15.6612 48.3164 16.2772ZM49.9751 19.0352H50.9831V22.8712L54.9591 18.5872V24.8452H53.9511V20.9672L49.9751 25.2512V19.0352ZM61.3458 15.0452H62.4658C62.3631 15.3905 62.1858 15.6845 61.9338 15.9272C61.6911 16.1605 61.4671 16.3192 61.2618 16.4032C61.0658 16.4872 60.8324 16.5619 60.5618 16.6272C60.5151 16.6365 60.4031 16.6645 60.2258 16.7112C60.0484 16.7485 59.9131 16.7812 59.8198 16.8092C59.7264 16.8372 59.6051 16.8745 59.4558 16.9212C59.3064 16.9679 59.1711 17.0239 59.0498 17.0892C58.9284 17.1545 58.8164 17.2245 58.7138 17.2992C58.3591 17.5699 58.0698 17.9479 57.8458 18.4332C57.6311 18.9092 57.5144 19.4179 57.4958 19.9592H57.5238C57.9438 19.2499 58.6484 18.8952 59.6378 18.8952C60.5058 18.8952 61.2244 19.1892 61.7938 19.7772C62.3724 20.3652 62.6618 21.0932 62.6618 21.9612C62.6618 22.8385 62.3678 23.5665 61.7798 24.1452C61.1918 24.7239 60.4264 25.0132 59.4838 25.0132C58.6718 25.0132 58.0044 24.7705 57.4818 24.2852C56.8284 23.6879 56.5018 22.6892 56.5018 21.2892C56.5018 18.8532 57.0524 17.2572 58.1538 16.5012C58.2378 16.4452 58.3264 16.3939 58.4198 16.3472C58.5131 16.2912 58.6111 16.2445 58.7138 16.2072C58.8258 16.1605 58.9191 16.1232 58.9938 16.0952C59.0684 16.0579 59.1711 16.0252 59.3018 15.9972C59.4418 15.9599 59.5351 15.9365 59.5818 15.9272C59.6378 15.9085 59.7404 15.8852 59.8898 15.8572C60.0484 15.8199 60.1464 15.7965 60.1838 15.7872C60.5571 15.7032 60.8278 15.6052 60.9958 15.4932C61.1638 15.3719 61.2804 15.2225 61.3458 15.0452ZM61.0238 20.3652C60.6318 19.9825 60.1511 19.7912 59.5818 19.7912C59.0124 19.7912 58.5271 19.9872 58.1258 20.3792C57.7338 20.7619 57.5378 21.2892 57.5378 21.9612C57.5378 22.6332 57.7384 23.1605 58.1398 23.5432C58.5411 23.9259 59.0218 24.1172 59.5818 24.1172C60.1418 24.1172 60.6224 23.9259 61.0238 23.5432C61.4251 23.1605 61.6258 22.6332 61.6258 21.9612C61.6258 21.2799 61.4251 20.7479 61.0238 20.3652ZM64.2076 19.0352H65.2156V22.8712L69.1916 18.5872V24.8452H68.1836V20.9672L64.2076 25.2512V19.0352ZM72.1062 24.0332V28.0652H71.0982V19.0352H72.1062V19.8472C72.6195 19.2125 73.2822 18.8952 74.0942 18.8952C74.9622 18.8952 75.6482 19.2032 76.1522 19.8192C76.6655 20.4259 76.9222 21.1445 76.9222 21.9752C76.9222 22.8152 76.6702 23.5339 76.1662 24.1312C75.6622 24.7192 74.9855 25.0132 74.1362 25.0132C73.2868 25.0132 72.6102 24.6865 72.1062 24.0332ZM73.9962 24.1172C74.5655 24.1172 75.0228 23.9119 75.3682 23.5012C75.7135 23.0812 75.8862 22.5725 75.8862 21.9752C75.8862 21.3032 75.6948 20.7712 75.3122 20.3792C74.9295 19.9872 74.4862 19.7912 73.9822 19.7912C73.4782 19.7912 73.0302 19.9872 72.6382 20.3792C72.2462 20.7712 72.0502 21.2985 72.0502 21.9612C72.0502 22.5679 72.2275 23.0812 72.5822 23.5012C72.9462 23.9119 73.4175 24.1172 73.9962 24.1172ZM83.0173 19.4552V20.6592C82.56 20.0805 81.9533 19.7912 81.1973 19.7912C80.628 19.7912 80.1427 19.9872 79.7413 20.3792C79.34 20.7619 79.1393 21.2892 79.1393 21.9612C79.1393 22.6332 79.34 23.1605 79.7413 23.5432C80.1427 23.9259 80.6233 24.1172 81.1833 24.1172C81.93 24.1172 82.5553 23.8139 83.0593 23.2072V24.4112C82.5087 24.8125 81.8927 25.0132 81.2113 25.0132C80.306 25.0132 79.5593 24.7285 78.9713 24.1592C78.3927 23.5805 78.1033 22.8525 78.1033 21.9752C78.1033 21.0885 78.3973 20.3559 78.9853 19.7772C79.5733 19.1892 80.3153 18.8952 81.2113 18.8952C81.8833 18.8952 82.4853 19.0819 83.0173 19.4552ZM84.606 19.0352H85.614V21.4152L87.966 19.0352H89.198L86.678 21.6252L89.506 24.8452H88.19L85.922 22.2972L85.614 22.5912V24.8452H84.606V19.0352ZM90.5122 19.0352H91.5202V22.8712L95.4962 18.5872V24.8452H94.4882V20.9672L90.5122 25.2512V19.0352ZM97.4029 19.0352H98.4109V22.8712L102.387 18.5872V24.8452H101.379V20.9672L97.4029 25.2512V19.0352ZM97.9069 16.5292L98.7469 16.2072C98.9149 16.7672 99.3115 17.0472 99.9369 17.0472C100.562 17.0472 100.959 16.7672 101.127 16.2072L101.967 16.5292C101.818 16.9492 101.561 17.2805 101.197 17.5232C100.842 17.7659 100.422 17.8872 99.9369 17.8872C99.4515 17.8872 99.0269 17.7659 98.6629 17.5232C98.3082 17.2805 98.0562 16.9492 97.9069 16.5292ZM44.0184 46.0652V42.9432C43.001 42.9432 42.1844 42.6912 41.5684 42.1872C40.8964 41.6459 40.5604 40.8945 40.5604 39.9332C40.5604 38.9812 40.8917 38.2345 41.5544 37.6932C42.1517 37.1892 42.973 36.9372 44.0184 36.9372V33.5072H45.0264V36.9372C46.0717 36.9372 46.893 37.1892 47.4904 37.6932C48.153 38.2345 48.4844 38.9812 48.4844 39.9332C48.4844 40.8945 48.1484 41.6459 47.4764 42.1872C46.8604 42.6912 46.0437 42.9432 45.0264 42.9432V46.0652H44.0184ZM44.0184 42.0472V37.8332C43.3557 37.8332 42.8377 37.9545 42.4644 38.1972C41.8857 38.5612 41.5964 39.1399 41.5964 39.9332C41.5964 40.6799 41.867 41.2445 42.4084 41.6272C42.8004 41.9072 43.337 42.0472 44.0184 42.0472ZM45.0264 37.8332V42.0472C45.7077 42.0472 46.2444 41.9072 46.6364 41.6272C47.1777 41.2445 47.4484 40.6799 47.4484 39.9332C47.4484 39.1399 47.159 38.5612 46.5804 38.1972C46.207 37.9545 45.689 37.8332 45.0264 37.8332ZM54.3418 40.8992L55.1818 41.3612C54.9858 41.7345 54.7478 42.0472 54.4678 42.2992C53.9358 42.7752 53.2918 43.0132 52.5358 43.0132C51.7518 43.0132 51.0752 42.7612 50.5058 42.2572C49.9458 41.7439 49.6658 40.9832 49.6658 39.9752C49.6658 39.0885 49.9178 38.3559 50.4218 37.7772C50.9352 37.1892 51.6212 36.8952 52.4798 36.8952C53.4505 36.8952 54.1832 37.2499 54.6778 37.9592C55.0698 38.5192 55.2518 39.2472 55.2238 40.1432H50.7018C50.7112 40.7312 50.8932 41.2072 51.2478 41.5712C51.6025 41.9352 52.0365 42.1172 52.5498 42.1172C53.0072 42.1172 53.4038 41.9772 53.7398 41.6972C54.0012 41.4732 54.2018 41.2072 54.3418 40.8992ZM50.7718 39.3032H54.1878C54.1038 38.8459 53.9032 38.4819 53.5858 38.2112C53.2778 37.9312 52.9092 37.7912 52.4798 37.7912C52.0598 37.7912 51.6865 37.9359 51.3598 38.2252C51.0425 38.5052 50.8465 38.8645 50.7718 39.3032ZM57.1901 37.0352H61.2781V41.9212H62.1461V44.3852H61.2221V42.8452H56.7981V44.3852H55.8741V41.9212C56.3594 41.9119 56.7187 41.6599 56.9521 41.1652C57.1107 40.8385 57.1901 40.3252 57.1901 39.6252V37.0352ZM60.2701 41.9212V37.9592H58.1981V40.1432C58.1981 40.9179 57.9647 41.5105 57.4981 41.9212H60.2701ZM67.5215 40.8992L68.3615 41.3612C68.1655 41.7345 67.9275 42.0472 67.6475 42.2992C67.1155 42.7752 66.4715 43.0132 65.7155 43.0132C64.9315 43.0132 64.2548 42.7612 63.6855 42.2572C63.1255 41.7439 62.8455 40.9832 62.8455 39.9752C62.8455 39.0885 63.0975 38.3559 63.6015 37.7772C64.1148 37.1892 64.8008 36.8952 65.6595 36.8952C66.6302 36.8952 67.3628 37.2499 67.8575 37.9592C68.2495 38.5192 68.4315 39.2472 68.4035 40.1432H63.8815C63.8908 40.7312 64.0728 41.2072 64.4275 41.5712C64.7822 41.9352 65.2162 42.1172 65.7295 42.1172C66.1868 42.1172 66.5835 41.9772 66.9195 41.6972C67.1808 41.4732 67.3815 41.2072 67.5215 40.8992ZM63.9515 39.3032H67.3675C67.2835 38.8459 67.0828 38.4819 66.7655 38.2112C66.4575 37.9312 66.0888 37.7912 65.6595 37.7912C65.2395 37.7912 64.8662 37.9359 64.5395 38.2252C64.2222 38.5052 64.0262 38.8645 63.9515 39.3032ZM70.9577 42.0332V46.0652H69.9497V37.0352H70.9577V37.8472C71.4711 37.2125 72.1337 36.8952 72.9457 36.8952C73.8137 36.8952 74.4997 37.2032 75.0037 37.8192C75.5171 38.4259 75.7737 39.1445 75.7737 39.9752C75.7737 40.8152 75.5217 41.5339 75.0177 42.1312C74.5137 42.7192 73.8371 43.0132 72.9877 43.0132C72.1384 43.0132 71.4617 42.6865 70.9577 42.0332ZM72.8477 42.1172C73.4171 42.1172 73.8744 41.9119 74.2197 41.5012C74.5651 41.0812 74.7377 40.5725 74.7377 39.9752C74.7377 39.3032 74.5464 38.7712 74.1637 38.3792C73.7811 37.9872 73.3377 37.7912 72.8337 37.7912C72.3297 37.7912 71.8817 37.9872 71.4897 38.3792C71.0977 38.7712 70.9017 39.2985 70.9017 39.9612C70.9017 40.5679 71.0791 41.0812 71.4337 41.5012C71.7977 41.9119 72.2691 42.1172 72.8477 42.1172ZM81.7709 37.8612V37.0352H82.7789V42.8452H81.7709V42.0332C81.2669 42.6865 80.6042 43.0132 79.7829 43.0132C78.9989 43.0132 78.3315 42.7425 77.7809 42.2012C77.2302 41.6599 76.9549 40.9039 76.9549 39.9332C76.9549 38.9812 77.2255 38.2392 77.7669 37.7072C78.3175 37.1659 78.9895 36.8952 79.7829 36.8952C80.6229 36.8952 81.2855 37.2172 81.7709 37.8612ZM79.8949 37.7912C79.3629 37.7912 78.9102 37.9825 78.5369 38.3652C78.1729 38.7385 77.9909 39.2612 77.9909 39.9332C77.9909 40.5772 78.1589 41.1045 78.4949 41.5152C78.8402 41.9165 79.3069 42.1172 79.8949 42.1172C80.4829 42.1172 80.9495 41.9072 81.2949 41.4872C81.6495 41.0672 81.8269 40.5539 81.8269 39.9472C81.8269 39.2565 81.6309 38.7245 81.2389 38.3512C80.8469 37.9779 80.3989 37.7912 79.8949 37.7912ZM89.084 37.0352V42.8452H88.076V37.9592H86.004V40.5772C86.004 41.3332 85.8547 41.8932 85.556 42.2572C85.22 42.6679 84.7534 42.8732 84.156 42.8732C84.0814 42.8732 83.9787 42.8639 83.848 42.8452V41.9212C83.9414 41.9399 84.016 41.9492 84.072 41.9492C84.3987 41.9492 84.6414 41.8232 84.8 41.5712C84.9307 41.3659 84.996 41.0345 84.996 40.5772V37.0352H89.084ZM90.9908 42.8452V37.0352H91.9988V39.2612H93.0348C93.8374 39.2612 94.4254 39.4525 94.7988 39.8352C95.0974 40.1339 95.2468 40.5399 95.2468 41.0532C95.2468 41.5945 95.0741 42.0285 94.7288 42.3552C94.3834 42.6819 93.8141 42.8452 93.0208 42.8452H90.9908ZM91.9988 41.9492H92.9368C93.3568 41.9492 93.6554 41.8979 93.8328 41.7952C94.0848 41.6272 94.2108 41.3799 94.2108 41.0532C94.2108 40.7172 94.0894 40.4745 93.8468 40.3252C93.6788 40.2132 93.3801 40.1572 92.9508 40.1572H91.9988V41.9492ZM96.5962 42.8452V37.0352H97.6042V39.4152H100.348V37.0352H101.356V42.8452H100.348V40.3392H97.6042V42.8452H96.5962ZM103.254 42.8452V37.0352H104.262V39.2612H105.298C106.101 39.2612 106.689 39.4525 107.062 39.8352C107.361 40.1339 107.51 40.5399 107.51 41.0532C107.51 41.5945 107.338 42.0285 106.992 42.3552C106.647 42.6819 106.078 42.8452 105.284 42.8452H103.254ZM104.262 41.9492H105.2C105.62 41.9492 105.919 41.8979 106.096 41.7952C106.348 41.6272 106.474 41.3799 106.474 41.0532C106.474 40.7172 106.353 40.4745 106.11 40.3252C105.942 40.2132 105.644 40.1572 105.214 40.1572H104.262V41.9492ZM108.21 42.8452V37.0352H109.218V42.8452H108.21ZM111.116 37.0352H112.124V40.8712L116.1 36.5872V42.8452H115.092V38.9672L111.116 43.2512V37.0352ZM111.62 34.5292L112.46 34.2072C112.628 34.7672 113.024 35.0472 113.65 35.0472C114.275 35.0472 114.672 34.7672 114.84 34.2072L115.68 34.5292C115.53 34.9492 115.274 35.2805 114.91 35.5232C114.555 35.7659 114.135 35.8872 113.65 35.8872C113.164 35.8872 112.74 35.7659 112.376 35.5232C112.021 35.2805 111.769 34.9492 111.62 34.5292ZM126.188 42.1452C125.609 42.7239 124.877 43.0132 123.99 43.0132C123.103 43.0132 122.366 42.7239 121.778 42.1452C121.199 41.5665 120.91 40.8385 120.91 39.9612C120.91 39.0745 121.199 38.3419 121.778 37.7632C122.366 37.1845 123.103 36.8952 123.99 36.8952C124.877 36.8952 125.609 37.1845 126.188 37.7632C126.776 38.3419 127.07 39.0745 127.07 39.9612C127.07 40.8385 126.776 41.5665 126.188 42.1452ZM125.432 38.3652C125.04 37.9825 124.559 37.7912 123.99 37.7912C123.421 37.7912 122.935 37.9872 122.534 38.3792C122.142 38.7619 121.946 39.2892 121.946 39.9612C121.946 40.6332 122.147 41.1605 122.548 41.5432C122.949 41.9259 123.43 42.1172 123.99 42.1172C124.55 42.1172 125.031 41.9259 125.432 41.5432C125.833 41.1605 126.034 40.6332 126.034 39.9612C126.034 39.2799 125.833 38.7479 125.432 38.3652ZM128.616 37.0352H129.624V39.4152L131.976 37.0352H133.208L130.688 39.6252L133.516 42.8452H132.2L129.932 40.2972L129.624 40.5912V42.8452H128.616V37.0352ZM135.53 42.0332V46.0652H134.522V37.0352H135.53V37.8472C136.043 37.2125 136.706 36.8952 137.518 36.8952C138.386 36.8952 139.072 37.2032 139.576 37.8192C140.089 38.4259 140.346 39.1445 140.346 39.9752C140.346 40.8152 140.094 41.5339 139.59 42.1312C139.086 42.7192 138.409 43.0132 137.56 43.0132C136.711 43.0132 136.034 42.6865 135.53 42.0332ZM137.42 42.1172C137.989 42.1172 138.447 41.9119 138.792 41.5012C139.137 41.0812 139.31 40.5725 139.31 39.9752C139.31 39.3032 139.119 38.7712 138.736 38.3792C138.353 37.9872 137.91 37.7912 137.406 37.7912C136.902 37.7912 136.454 37.9872 136.062 38.3792C135.67 38.7712 135.474 39.2985 135.474 39.9612C135.474 40.5679 135.651 41.0812 136.006 41.5012C136.37 41.9119 136.841 42.1172 137.42 42.1172ZM141.877 46.0652L143.725 42.2992L141.051 37.0352H142.199L144.257 41.1932L146.147 37.0352H147.267L142.997 46.0652H141.877ZM148.331 42.8452V37.0352H151.775V37.9592H149.339V42.8452H148.331Z" fill="#D7DCE7" fill-opacity="0.4"/>
<defs>
<clipPath id="clip0_2_415">
<rect width="32.7508" height="32.7384" fill="white" transform="translate(0.671417 0.660004)"/>
</clipPath>
</defs>
</svg>
